<svg width="36" height="41" viewBox="0 0 36 41" fill="none" xmlns="http://www.w3.org/2000/svg">
<path d="M19.968 0.319999H15.408C15.6 1.232 15.744 3.344 15.792 5.12C15.792 7.184 15.84 11.12 15.84 13.904C15.84 18.8 16.416 28.112 16.416 31.664C16.416 34.976 14.688 36.656 11.184 36.656C6.528 36.656 3.84 35.168 3.84 32.528C3.84 29.84 6.672 28.16 11.664 28.16C20.064 28.16 27.936 32.864 32.736 37.664L35.04 34.064C30.144 29.6 21.6 24.8 12.096 24.8C3.792 24.8 0.0480001 28.304 0.0480001 32.672C0.0480001 38.144 4.896 40.208 11.568 40.208C17.952 40.208 20.352 36.848 20.352 32.96C20.352 28.736 19.584 19.136 19.584 13.904C19.584 10.592 19.584 7.28 19.584 5.12C19.632 3.68 19.776 1.376 19.968 0.319999ZM17.472 10.016V13.568C20.928 13.568 28.752 13.232 33.936 12.752L33.792 9.152C28.608 9.776 20.784 10.016 17.472 10.016Z" fill="black"/>
</svg>
