<svg width="33" height="36" viewBox="0 0 33 36" fill="none" xmlns="http://www.w3.org/2000/svg">
<path d="M3.232 0.351998V4.24C7.024 4.576 11.152 4.768 15.952 4.768C20.368 4.768 25.6 4.432 28.864 4.192V0.256C25.408 0.639997 20.56 0.927999 15.952 0.927999C11.104 0.927999 6.688 0.735999 3.232 0.351998ZM5.152 19.696L1.264 19.312C0.832001 21.232 0.304 23.488 0.304 25.984C0.304 32.032 5.968 35.2 15.712 35.2C22.528 35.2 28.624 34.48 32.08 33.568L32.032 29.44C28.384 30.592 22.192 31.312 15.616 31.312C7.936 31.312 4.192 28.816 4.192 25.12C4.192 23.344 4.576 21.568 5.152 19.696Z" fill="black"/>
</svg>
