<svg width="43" height="41" viewBox="0 0 43 41" fill="none" xmlns="http://www.w3.org/2000/svg">
<path d="M23.344 35.592L25.072 39.192C35.536 37.176 42.592 32.136 42.544 22.44C42.544 15 36.64 10.344 29.968 10.344C24.928 10.344 18.832 12.36 13.072 17.784V22.056C17.728 17.208 23.248 13.8 29.392 13.8C35.776 13.8 38.704 18.696 38.704 22.392C38.752 30.648 31.456 34.392 23.344 35.592ZM12.496 12.456L12.112 13.704L11.92 16.152C10.048 19.32 3.568 28.152 0.592 31.896L2.992 35.16C6.016 30.984 10.48 24.504 12.688 21.096L14.128 14.52C14.944 13.176 16.24 11.112 17.056 9.864L15.664 8.232C13.408 8.952 7.456 9.672 4.912 9.816C3.712 9.912 2.8 9.912 1.744 9.864L2.176 13.848C5.728 13.32 10.96 12.648 12.496 12.456ZM12.016 4.488C12.016 6.264 10.864 21.48 10.768 25.704C10.72 30.984 10.672 33.384 10.672 38.04C10.672 38.808 10.576 40.2 10.528 40.872H14.656C14.608 39.96 14.464 38.76 14.416 37.944C14.224 33.672 14.224 30.744 14.224 26.376C14.224 17.928 15.712 4.2 16.384 1.08L11.824 0.935998C12.064 2.136 12.016 3.384 12.016 4.488Z" fill="black"/>
</svg>
