<svg width="24" height="37" viewBox="0 0 24 37" fill="none" xmlns="http://www.w3.org/2000/svg">
<path d="M12.2045 36.4773C10.7727 36.4545 9.34091 36.1818 7.90909 35.6591C6.47727 35.1364 5.17045 34.2557 3.98864 33.017C2.80682 31.767 1.85795 30.0795 1.14205 27.9545C0.426136 25.8182 0.0681818 23.1364 0.0681818 19.9091C0.0681818 16.8182 0.357955 14.0795 0.9375 11.6932C1.51705 9.29545 2.35795 7.27841 3.46023 5.64205C4.5625 3.99432 5.89205 2.74432 7.44886 1.89204C9.01705 1.03977 10.7841 0.613635 12.75 0.613635C14.7045 0.613635 16.4432 1.00568 17.9659 1.78977C19.5 2.5625 20.75 3.64204 21.7159 5.02841C22.6818 6.41477 23.3068 8.01136 23.5909 9.81818H19.4318C19.0455 8.25 18.2955 6.94886 17.1818 5.91477C16.0682 4.88068 14.5909 4.36364 12.75 4.36364C10.0455 4.36364 7.91477 5.53977 6.35795 7.89205C4.8125 10.2443 4.03409 13.5455 4.02273 17.7955H4.29545C4.93182 16.8295 5.6875 16.0057 6.5625 15.3239C7.44886 14.6307 8.42614 14.0966 9.49432 13.7216C10.5625 13.3466 11.6932 13.1591 12.8864 13.1591C14.8864 13.1591 16.7159 13.6591 18.375 14.6591C20.0341 15.6477 21.3636 17.017 22.3636 18.767C23.3636 20.5057 23.8636 22.5 23.8636 24.75C23.8636 26.9091 23.3807 28.8864 22.4148 30.6818C21.4489 32.4659 20.0909 33.8864 18.3409 34.9432C16.6023 35.9886 14.5568 36.5 12.2045 36.4773ZM12.2045 32.7273C13.6364 32.7273 14.9205 32.3693 16.0568 31.6534C17.2045 30.9375 18.108 29.9773 18.767 28.7727C19.4375 27.5682 19.7727 26.2273 19.7727 24.75C19.7727 23.3068 19.4489 21.9943 18.8011 20.8125C18.1648 19.6193 17.2841 18.6705 16.1591 17.9659C15.0455 17.2614 13.7727 16.9091 12.3409 16.9091C11.2614 16.9091 10.2557 17.125 9.32386 17.5568C8.39205 17.9773 7.57386 18.5568 6.86932 19.2955C6.17614 20.0341 5.63068 20.8807 5.23295 21.8352C4.83523 22.7784 4.63636 23.7727 4.63636 24.8182C4.63636 26.2045 4.96023 27.5 5.60795 28.7045C6.26705 29.9091 7.16477 30.8807 8.30114 31.6193C9.44886 32.358 10.75 32.7273 12.2045 32.7273Z" fill="black"/>
</svg>
