<svg width="45" height="41" viewBox="0 0 45 41" fill="none" xmlns="http://www.w3.org/2000/svg">
<path d="M42.592 37.32L44.704 34.2C39.472 28.68 34.72 26.136 28.912 26.136C24.016 26.136 20.56 28.872 20.56 32.76C20.56 37.608 24.448 39.528 29.056 39.528C37.456 39.528 39.952 32.568 39.952 21.432C39.952 13.56 36.496 7.704 30.064 7.704C24.016 7.704 17.2 13.272 13.216 17.064L13.12 21.672C17.296 16.776 24.448 11.112 29.392 11.112C33.472 11.112 36.304 14.904 36.304 20.904C36.304 29.352 35.008 36.168 28.816 36.168C26.128 36.168 23.824 35.064 23.824 32.568C23.824 30.504 26.128 29.16 28.576 29.16C33.904 29.16 38.224 32.28 42.592 37.32ZM12.496 12.456L12.112 13.704L11.92 16.152C10.048 19.32 3.568 28.152 0.592 31.896L2.992 35.16C5.968 30.936 10.48 24.504 12.688 21.096L14.128 14.568C14.944 13.224 16.24 11.112 17.104 9.912L15.664 8.232C13.456 8.952 7.456 9.72 4.912 9.864C3.712 9.912 2.8 9.96 1.744 9.912L2.176 13.848C5.728 13.32 10.912 12.696 12.496 12.456ZM12.016 4.488C12.016 6.264 10.864 21.48 10.768 25.704C10.72 30.984 10.672 33.384 10.672 38.04C10.672 38.808 10.576 40.2 10.528 40.872H14.656C14.608 39.96 14.464 38.76 14.416 37.944C14.224 33.672 14.224 30.744 14.224 26.376C14.224 17.928 15.712 4.2 16.336 1.08L11.872 0.935998C12.064 2.136 12.016 3.384 12.016 4.488Z" fill="black"/>
</svg>
