<svg width="93" height="45" viewBox="0 0 93 45" fill="none" xmlns="http://www.w3.org/2000/svg">
<path d="M7.64 26.024V29.432H38.312V26.024H7.64ZM20.936 20.312V44.888H24.584V20.312H20.936ZM11.816 31.976C9.752 35.576 6.056 38.984 2.36 41.192C3.224 41.72 4.712 42.92 5.384 43.64C9.08 41.096 13.112 37.208 15.512 33.08L11.816 31.976ZM29.768 33.752C33.464 36.584 37.88 40.712 39.896 43.4L42.968 41.24C40.808 38.504 36.296 34.568 32.6 31.784L29.768 33.752ZM22.856 13.88C27.464 19.304 36.2 24.488 43.544 27.128C44.024 26.168 44.84 24.824 45.608 23.912C38.024 21.608 29.672 16.76 24.488 10.76H20.84C16.904 16.04 8.984 21.56 0.632 24.488C1.304 25.304 2.12 26.648 2.504 27.56C10.664 24.344 18.824 18.92 22.856 13.88ZM1.928 4.856V8.216H44.168V4.856H1.928ZM12.392 0.727998V13.304H15.944V0.727998H12.392ZM29.672 0.727998V13.304H33.224V0.727998H29.672ZM56.504 24.68V27.992H86.648V24.68H56.504ZM69.56 13.928V26.36H73.16V13.928H69.56ZM56.36 12.632V15.896H85.448V30.104H89.096V12.632H56.36ZM54.536 12.632V37.208C54.536 42.968 56.888 44.36 64.664 44.36C66.44 44.36 81.512 44.36 83.432 44.36C90.584 44.36 92.072 42.248 92.888 35.144C91.784 34.952 90.248 34.424 89.336 33.8C88.76 39.704 87.992 40.952 83.336 40.952C80.12 40.952 66.968 40.952 64.424 40.952C59.144 40.952 58.136 40.28 58.136 37.208V12.632H54.536ZM62.552 3.896L60.92 7.112H77.624V3.896H62.552ZM62.648 0.535997C60.056 5.384 55.208 11.336 48.68 15.752C49.544 16.328 50.744 17.528 51.32 18.392C58.232 13.352 63.224 7.016 66.632 1.304L62.648 0.535997ZM76.04 3.896V4.616C74.936 7.304 72.632 11.096 70.568 13.4C71.24 13.928 72.344 14.984 72.872 15.704C75.32 13.112 78.152 8.984 80.024 5.288L77.576 3.704L76.856 3.896H76.04Z" fill="black"/>
</svg>
