<svg width="44" height="45" viewBox="0 0 44 45" fill="none" xmlns="http://www.w3.org/2000/svg">
<path d="M7.552 22.136V44.936H11.152V24.872H34.336V22.136H7.552ZM33.184 22.136V40.904C33.184 41.624 32.944 41.816 32.08 41.864C31.312 41.864 28.432 41.864 25.504 41.816C25.984 42.68 26.512 43.88 26.704 44.744C30.64 44.744 33.232 44.744 34.768 44.264C36.256 43.784 36.784 42.872 36.784 40.904V22.136H33.184ZM9.76 28.28V30.92H34.384V28.28H9.76ZM0.832 16.232V19.064H43.12V16.232H0.832ZM3.952 3.896V6.776H40.576V3.896H3.952ZM5.536 9.992V12.728H38.512V9.992H5.536ZM9.76 34.424V36.968H34.384V34.424H9.76ZM20.032 0.679998V18.008H23.68V0.679998H20.032Z" fill="black"/>
</svg>
