<svg width="39" height="42" viewBox="0 0 39 42" fill="none" xmlns="http://www.w3.org/2000/svg">
<path d="M18.08 1.08L14.144 0.743998C14 3 13.328 5.88 12.272 8.52C10.64 12.6 7.424 18.168 0.512 24.792L3.824 27.24C5.408 25.272 6.752 23.544 8.144 22.2C10.352 20.232 13.376 18.696 16.448 18.696C18.944 18.696 20.864 19.992 20.912 22.776C20.96 25.272 20.912 30.216 20.72 32.76H24.416C24.368 29.784 24.272 24.264 24.272 21.768C24.272 17.88 21.392 15.672 17.696 15.672C15.584 15.672 12.848 16.344 10.976 17.448C12.896 14.952 14.672 11.736 15.872 8.808C17.12 5.592 17.648 2.952 18.08 1.08ZM1.616 6.264V9.864C4.304 10.056 7.472 10.152 9.536 10.152C15.632 10.152 24.56 9.72 31.28 8.712V5.16C24.512 6.36 16.208 6.744 9.728 6.744C7.52 6.744 4.208 6.6 1.616 6.264ZM38.288 17.832L36.752 14.28C35.408 14.952 34.208 15.48 32.768 16.152C29.6 17.64 25.712 19.128 21.152 21.48C15.44 24.408 9.488 28.008 9.488 33.864C9.488 39.672 15.008 41.16 21.824 41.16C26 41.16 31.328 40.776 34.976 40.344L35.12 36.456C30.896 37.224 25.712 37.656 21.968 37.656C17.024 37.656 13.328 37.08 13.328 33.336C13.328 30.024 16.688 27.432 21.44 24.936C26.096 22.536 30.656 20.712 34.064 19.368C35.36 18.888 37.088 18.216 38.288 17.832Z" fill="black"/>
</svg>
