<svg width="34" height="42" viewBox="0 0 34 42" fill="none" xmlns="http://www.w3.org/2000/svg">
<path d="M19.456 0.935998H15.376C15.52 1.56 15.568 3 15.568 3.816C15.568 7.176 15.568 12.216 15.568 16.536C15.568 20.76 16.048 29.976 16.048 33.672C16.048 37.032 13.696 37.848 10.912 37.848C6.16 37.848 4.288 36.216 4.288 33.96C4.288 31.752 6.736 29.976 11.344 29.976C19.888 29.976 26.992 34.776 31.312 38.76L33.52 35.352C29.824 32.328 21.904 26.856 11.776 26.856C4.864 26.856 0.688 29.784 0.688 34.152C0.688 38.808 4.48 41.256 11.392 41.256C17.632 41.256 19.84 37.848 19.84 34.488C19.84 31.272 19.12 22.872 19.12 16.536C19.12 12.504 19.12 6.072 19.216 4.152C19.264 2.712 19.36 1.752 19.456 0.935998ZM1.12 6.12L1.168 9.672C4.192 10.056 10.096 10.488 13.408 10.488C19.84 10.488 26.704 9.864 32.128 9.24V5.736C25.888 6.744 19.456 7.176 13.36 7.176C10.192 7.176 4.192 6.696 1.12 6.12ZM0.88 16.344L0.928 19.944C4.336 20.328 9.616 20.568 12.928 20.568C20.128 20.568 25.984 20.232 32.512 19.416V15.816C26.272 16.728 19.888 17.208 12.928 17.208C9.76 17.208 4.288 16.872 0.88 16.344Z" fill="black"/>
</svg>
