<svg width="24" height="37" viewBox="0 0 24 37" fill="none" xmlns="http://www.w3.org/2000/svg">
<path d="M11.7273 0.613635C13.1591 0.624999 14.5909 0.897726 16.0227 1.43182C17.4545 1.96591 18.7614 2.85227 19.9432 4.09091C21.125 5.31818 22.0739 6.99432 22.7898 9.11932C23.5057 11.2443 23.8636 13.9091 23.8636 17.1136C23.8636 20.2159 23.5682 22.9716 22.9773 25.3807C22.3977 27.7784 21.5568 29.8011 20.4545 31.4489C19.3636 33.0966 18.0341 34.3466 16.4659 35.1989C14.9091 36.0511 13.1477 36.4773 11.1818 36.4773C9.22727 36.4773 7.48295 36.0909 5.94886 35.3182C4.42614 34.5341 3.17614 33.4489 2.19886 32.0625C1.23295 30.6648 0.613636 29.0455 0.340909 27.2045H4.5C4.875 28.8068 5.61932 30.1307 6.73295 31.1761C7.85795 32.2102 9.34091 32.7273 11.1818 32.7273C13.875 32.7273 16 31.5511 17.5568 29.1989C19.125 26.8466 19.9091 23.5227 19.9091 19.2273H19.6364C19 20.1818 18.2443 21.0057 17.3693 21.6989C16.4943 22.392 15.5227 22.9261 14.4545 23.3011C13.3864 23.6761 12.25 23.8636 11.0455 23.8636C9.04545 23.8636 7.21023 23.3693 5.53977 22.3807C3.88068 21.3807 2.55114 20.0114 1.55114 18.2727C0.5625 16.5227 0.0681818 14.5227 0.0681818 12.2727C0.0681818 10.1364 0.545455 8.18182 1.5 6.40909C2.46591 4.625 3.81818 3.20455 5.55682 2.14773C7.30682 1.09091 9.36364 0.579545 11.7273 0.613635ZM11.7273 4.36364C10.2955 4.36364 9.00568 4.72159 7.85795 5.4375C6.72159 6.14204 5.81818 7.09659 5.14773 8.30114C4.48864 9.49432 4.15909 10.8182 4.15909 12.2727C4.15909 13.7273 4.47727 15.0511 5.11364 16.2443C5.76136 17.4261 6.64205 18.3693 7.75568 19.0739C8.88068 19.767 10.1591 20.1136 11.5909 20.1136C12.6705 20.1136 13.6761 19.9034 14.608 19.483C15.5398 19.0511 16.3523 18.4659 17.0455 17.7273C17.75 16.9773 18.3011 16.1307 18.6989 15.1875C19.0966 14.233 19.2955 13.2386 19.2955 12.2045C19.2955 10.8409 18.9659 9.5625 18.3068 8.36932C17.6591 7.17614 16.7614 6.21023 15.6136 5.47159C14.4773 4.73295 13.1818 4.36364 11.7273 4.36364Z" fill="black"/>
</svg>
