<svg width="40" height="37" viewBox="0 0 40 37" fill="none" xmlns="http://www.w3.org/2000/svg">
<path d="M23.024 2.264L19.04 2.168C18.56 7.16 17.552 12.584 16.16 17.144C13.712 25.256 11.12 28.52 8.864 28.52C6.704 28.52 3.968 25.832 3.968 19.784C3.968 12.728 10.544 4.04 21.104 4.04C30.32 4.04 35.648 10.376 35.648 18.056C35.648 26.36 29.6 30.968 23.456 32.36C22.304 32.6 20.864 32.792 19.328 32.936L21.536 36.488C32.96 35 39.584 28.28 39.584 18.248C39.584 8.504 32.432 0.584 21.2 0.584C9.44 0.584 0.176 9.656 0.176 20.072C0.176 28.04 4.448 32.936 8.768 32.936C13.184 32.936 17.024 27.848 19.952 18.008C21.44 12.872 22.4 7.256 23.024 2.264Z" fill="black"/>
</svg>
