<svg width="36" height="42" viewBox="0 0 36 42" fill="none" xmlns="http://www.w3.org/2000/svg">
<path d="M15.304 0.415998L10.984 0.223997C11.08 1.52 10.984 2.672 10.792 4.208C10.216 8.816 7.672 20.72 4.024 27.872L7.576 29.12C8.056 28.304 8.488 27.632 9.064 26.912C12.232 23.12 17.56 21.152 23.272 21.152C28.888 21.152 31.816 23.936 31.816 27.488C31.816 35.408 21.064 37.28 9.928 35.744L10.936 39.584C25.528 41.12 35.752 37.424 35.752 27.392C35.752 21.776 31.288 17.888 23.656 17.888C18.664 17.888 14.344 19.088 10.168 22.016C11.8 17.552 13.72 8.288 14.392 4.448C14.68 3.2 14.92 1.712 15.304 0.415998ZM0.376 6.56L0.424 10.304C3.16 10.544 6.232 10.784 9.496 10.784C16.072 10.784 25.864 9.824 32.68 8.624L32.584 4.928C25.048 6.608 15.592 7.328 9.448 7.328C6.568 7.328 2.92 6.992 0.376 6.56Z" fill="black"/>
</svg>
