<svg width="164" height="27" viewBox="0 0 164 27" fill="none" xmlns="http://www.w3.org/2000/svg">
<path d="M8.98 1.656H6.516C6.6 2.104 6.656 3.084 6.656 3.616C6.656 4.764 6.544 9.328 6.544 12.548C6.544 15.656 6.684 19.548 6.684 21.172C6.684 22.096 6.32 22.544 5.676 22.544C4.584 22.544 2.624 21.424 2.624 20.164C2.624 18.736 4.78 16.86 7.524 15.796C9.904 14.844 12.2 14.312 14.72 14.312C17.352 14.312 19.508 15.572 19.508 17.952C19.508 20.556 17.268 21.872 14.832 22.348C13.768 22.572 12.592 22.544 11.528 22.544L12.312 24.784C13.292 24.728 14.552 24.672 15.784 24.392C19.648 23.496 21.776 21.34 21.776 17.952C21.776 14.592 18.836 12.38 14.72 12.38C12.508 12.38 9.708 12.884 7.216 13.864C3.744 15.18 0.412 17.784 0.412 20.248C0.412 22.768 4.052 24.896 6.236 24.896C7.776 24.896 8.728 24.056 8.728 21.48C8.728 19.716 8.588 15.348 8.588 12.436C8.588 9.524 8.728 5.24 8.812 3.588C8.84 2.916 8.896 2.16 8.98 1.656ZM17.688 4.764L16.652 6.444C18.444 7.396 21.58 9.328 22.952 10.616L24.072 8.824C22.728 7.704 19.676 5.8 17.688 4.764ZM0.888 6.668L0.944 8.824C1.868 8.908 2.932 8.964 4.5 8.964C7.02 8.964 11.612 8.348 14.496 7.648L14.44 5.464C11.668 6.304 7.216 6.892 4.444 6.892C3.436 6.892 2.428 6.864 0.888 6.668ZM41.964 0.871999V26.268H44.036V0.871999H41.964ZM34.04 7.62V9.692H52.184V7.62H34.04ZM44.764 8.292L43.056 8.796C44.876 14.144 48.04 19.688 51.316 22.684C51.68 22.124 52.408 21.396 52.884 21.004C49.692 18.4 46.444 13.164 44.764 8.292ZM41.348 8.32C39.668 13.332 36.42 18.568 33.032 21.2C33.536 21.564 34.236 22.32 34.628 22.824C38.072 19.828 41.32 14.424 43.14 8.88L41.348 8.32ZM33.704 0.675998C31.996 5.072 29.14 9.272 26.06 11.96C26.424 12.464 27.096 13.584 27.32 14.088C30.68 10.98 33.816 6.22 35.776 1.32L33.704 0.675998ZM30.624 8.124V26.184H32.696V6.08V6.052L30.624 8.124ZM59.744 3.476L59.828 5.772C60.5 5.688 61.312 5.604 61.928 5.576C63.188 5.52 66.604 5.352 67.724 5.324C66.772 7.312 65.512 10.196 64.392 12.632C63.328 14.984 62.068 18.232 60.92 19.744C60.332 20.5 59.856 20.724 59.212 20.724C58.344 20.724 57.532 20.08 57.532 18.82C57.532 16.244 60.192 13.64 64.84 13.64C70.608 13.64 75.732 16.748 79.008 19.576L80.044 17.196C77.02 15.04 71.476 11.68 65.176 11.68C59.492 11.68 55.516 14.9 55.516 19.128C55.516 21.452 57.056 22.964 59.128 22.964C60.584 22.964 61.676 22.432 62.656 21.004C63.86 19.268 65.4 15.46 66.52 12.996C67.808 10.112 69.348 6.528 70.244 5.072C70.468 4.708 70.692 4.428 70.972 4.12L69.572 3C69.18 3.14 68.704 3.252 68.172 3.28C66.996 3.392 63.328 3.56 61.844 3.56C61.256 3.56 60.444 3.532 59.744 3.476ZM77.244 9.608L74.948 9.356C75.032 10.168 75.004 11.12 74.948 11.96C74.64 16.104 73.436 21.396 66.856 24.168L68.704 25.708C75.228 22.432 76.852 17.588 77.244 9.608ZM84.188 6.36L84.356 8.46C85.392 8.488 86.596 8.516 87.632 8.516C91.048 8.544 94.716 7.928 97.46 7.172L97.404 5.1C94.184 6.164 90.656 6.528 87.632 6.528C86.428 6.528 85.224 6.472 84.188 6.36ZM94.128 1.796L91.664 1.544C91.58 3.504 90.964 5.968 90.348 7.732C89.2 11.036 86.596 16.02 84.104 18.932L86.26 20.052C88.584 16.916 91.16 11.82 92.504 7.788C93.176 5.8 93.764 3.168 94.128 1.796ZM100.736 10.448H98.524C98.636 13.528 98.944 18.54 98.944 20.668C98.944 22.18 98.16 23.412 95.836 23.412C93.652 23.412 92.56 22.516 92.56 21.228C92.56 19.94 93.96 18.988 96.032 18.988C100.148 18.988 103.368 21.48 105.524 23.44L106.7 21.536C104.404 19.548 100.792 17.196 96.088 17.196C92.952 17.196 90.516 18.82 90.516 21.396C90.516 24.196 93.008 25.428 96.088 25.428C99.56 25.428 100.988 23.608 100.988 21.368C100.988 19.52 100.736 15.264 100.68 13.444C100.652 12.436 100.652 11.596 100.736 10.448ZM106.336 11.176L107.596 9.328C106.252 8.32 103.088 6.5 101.044 5.632L99.924 7.312C101.772 8.18 104.824 9.888 106.336 11.176ZM124.144 4.176C124.452 5.044 124.844 6.332 125.46 7.928C126.384 10.476 127.924 13.248 129.1 15.04C128.092 14.928 126.02 14.76 124.452 14.62L124.284 16.468C126.3 16.608 129.716 16.916 131.06 17.252L132.18 15.656C131.76 15.208 131.34 14.732 130.976 14.172C129.772 12.548 128.344 9.944 127.476 7.536C126.832 5.716 126.104 3.308 125.852 1.684L123.444 1.964C123.724 2.72 123.976 3.56 124.144 4.176ZM113.896 6.36L113.952 8.572C118.908 8.992 123.36 8.964 126.916 8.544C128.96 8.292 131.62 7.844 133.608 7.284L133.356 5.072C131.172 5.828 128.4 6.332 126.188 6.584C122.996 6.92 118.572 6.892 113.896 6.36ZM118.236 15.264L116.052 14.76C115.24 16.412 114.68 17.868 114.68 19.436C114.68 23.244 118.04 25.148 123.36 25.176C126.496 25.204 128.848 24.896 130.612 24.588L130.696 22.348C128.764 22.768 126.328 23.048 123.5 23.048C119.328 22.992 116.892 21.844 116.892 19.156C116.892 17.84 117.396 16.636 118.236 15.264ZM143.744 4.484L141.028 4.428C141.196 5.072 141.196 6.276 141.196 6.92C141.196 8.544 141.252 11.96 141.504 14.368C142.288 21.62 144.808 24.252 147.468 24.252C149.372 24.252 151.052 22.628 152.76 17.896L150.996 15.908C150.268 18.708 148.952 21.592 147.524 21.592C145.508 21.592 144.164 18.484 143.688 13.808C143.492 11.512 143.464 8.936 143.492 7.2C143.52 6.472 143.604 5.128 143.744 4.484ZM158.304 5.24L156.148 5.996C158.808 9.272 160.516 15.04 160.992 20.08L163.26 19.184C162.84 14.452 160.824 8.488 158.304 5.24Z" fill="black"/>
</svg>
