<svg width="44" height="39" viewBox="0 0 44 39" fill="none" xmlns="http://www.w3.org/2000/svg">
<path d="M25.272 0.559999L21.048 0.463997C21.192 1.856 21.144 2.768 21.096 4.448C20.808 8.48 19.896 14.864 18.264 19.568C15.48 27.296 10.776 33.68 6.84 33.68C5.352 33.68 4.008 31.952 4.008 29.552C4.008 26.144 5.304 22.832 7.464 19.664C11.064 14.336 16.92 10.256 24.744 10.208C31.848 10.208 35.784 15.056 35.784 21.248C35.784 28.352 33.576 35.408 27.768 35.408C25.224 35.408 23.688 34.112 23.688 32.192C23.688 30.608 25.176 29.024 28.056 29.024C33.912 29.024 38.472 34.304 41.016 37.376L43.32 34.4C40.392 31.04 35.208 26.096 27.912 26.096C23.496 26.096 20.424 29.168 20.424 32.48C20.424 36.368 23.352 38.72 27.912 38.72C35.88 38.72 39.432 31.28 39.432 21.104C39.432 12.224 32.808 6.992 25.032 6.992C15.048 6.992 8.184 12.656 4.584 17.792C2.28 21.008 0.552 25.136 0.552 30.08C0.552 34.736 3.24 37.52 6.696 37.52C12.936 37.52 18.504 29.36 21.576 20.672C23.448 15.392 24.168 9.44 24.792 4.4C24.888 3.44 25.08 1.76 25.272 0.559999ZM6.888 4.784L3.288 6.224C4.104 8.144 4.536 9.488 5.064 11.216C6.264 14.768 8.328 20.336 9.864 23.456C11.352 26.528 13.224 29.456 14.808 31.232L17.112 28.304C15.384 26.144 13.752 23.504 12.408 20.576C10.824 17.216 8.04 10.304 6.888 4.784Z" fill="black"/>
</svg>
