<svg width="40" height="41" viewBox="0 0 40 41" fill="none" xmlns="http://www.w3.org/2000/svg">
<path d="M17.216 1.272L12.656 0.887999C12.752 1.896 12.656 3.528 12.464 4.872C12.128 7.368 10.88 13.416 9.728 17.832C7.904 24.6 4.544 34.344 1.664 39.336L5.84 40.728C8.384 35.496 11.6 25.56 13.328 18.744C14.672 13.944 15.68 8.52 16.4 5.064C16.592 4.152 16.928 2.328 17.216 1.272ZM6.608 9.288C4.832 9.288 3.104 9.192 0.848 8.904L0.944 12.648C2.72 12.792 4.4 12.84 6.512 12.84C11.696 12.84 18.944 12.024 24.896 10.68V6.936C18.944 8.424 11.888 9.288 6.608 9.288ZM21.776 15.864V19.464C24.704 19.128 27.68 18.936 30.656 18.936C33.488 18.936 36.272 19.224 38.768 19.512L38.864 15.864C36.272 15.576 33.344 15.48 30.56 15.48C27.488 15.48 24.272 15.624 21.776 15.864ZM22.736 27.528L19.184 27.192C18.752 29.208 18.464 31.032 18.464 32.856C18.464 37.608 22.592 39.912 30.128 39.912C33.632 39.912 36.848 39.624 39.44 39.24L39.584 35.4C36.608 35.976 33.344 36.312 30.176 36.312C23.36 36.312 22.064 34.104 22.064 31.848C22.064 30.6 22.352 29.112 22.736 27.528Z" fill="black"/>
</svg>
