<svg width="117" height="38" viewBox="0 0 117 38" fill="none" xmlns="http://www.w3.org/2000/svg">
<path d="M18.8 3.32C22.44 8.4 29.48 14.64 35.68 18.36C36.24 17.48 36.96 16.48 37.72 15.8C31.44 12.44 24.32 6.28 20.12 0.319997H17.12C14.04 5.6 7.28 12.2 0.36 16.24C1.04 16.84 1.88 17.88 2.28 18.6C9.04 14.44 15.56 8.24 18.8 3.32ZM10.2 13.04V15.88H27.72V13.04H10.2ZM5.04 20.92V23.76H29.36V20.92H5.04ZM28.76 20.92V21.28C27.24 24.8 24.04 31.6 21.44 36.52L24.6 37.36C27.08 32.4 30.2 25.92 32.08 21.48L29.72 20.72L29.2 20.92H28.76ZM60.68 0.439998C59.28 4.12 56.56 8.76 52.48 12.16C53.16 12.56 54.12 13.44 54.6 14.12C58.96 10.2 61.84 5.28 63.64 0.919999L60.68 0.439998ZM60.76 3.88L59.2 6.44H69.72V3.88H60.76ZM64.16 11.56V21.24H66.88V11.56H64.16ZM60.12 22.12C59.56 28.4 58.04 32.68 50.56 34.92C51.16 35.44 51.96 36.56 52.28 37.24C60.4 34.56 62.32 29.52 63 22.12H60.12ZM66.84 22.12V33.04C66.84 36 67.56 36.84 70.4 36.84C70.96 36.84 73.56 36.84 74.2 36.84C76.68 36.84 77.44 35.52 77.68 30.12C76.92 29.88 75.68 29.44 75.12 28.96C75 33.56 74.84 34.16 73.88 34.16C73.32 34.16 71.2 34.16 70.76 34.16C69.84 34.16 69.68 34 69.68 33V22.12H66.84ZM43.56 3.4V6.08H50.24V26.72H43.56V29.4H53V3.4H43.56ZM43.64 14.88V17.56H51.52V14.88H43.64ZM42.04 3.4V32.56H44.76V3.4H42.04ZM58.24 13.12H73.16V20.24H58.24V13.12ZM55.56 10.52V22.84H75.96V10.52H55.56ZM68.72 3.88V4.4C67.88 6.36 66.2 9.2 64.72 10.92C65.36 11.2 66.24 11.76 66.8 12.16C68.4 10.36 70.44 7.44 71.6 4.96L69.76 3.76L69.32 3.88H68.72ZM94.92 10.36L94.96 13.4C97.28 13.56 99.36 13.64 101.68 13.64C106.36 13.64 111.24 13.32 115.48 12.6V9.52C111.44 10.36 106.52 10.72 101.72 10.72C99.36 10.72 97.2 10.6 94.92 10.36ZM108.92 3.2H105.32C105.44 3.92 105.48 4.96 105.48 5.68C105.48 7.08 105.52 9.6 105.52 12.36C105.52 17.64 106.04 25.12 106.04 28C106.04 30.68 105.08 32.36 101.72 32.36C98.8 32.36 96.84 31.28 96.84 29.2C96.84 27.28 98.92 25.96 101.92 25.96C107 25.96 111.04 28.68 115.24 32.6L116.96 29.96C113.6 26.92 108.92 23.52 102.2 23.52C96.92 23.52 93.96 26.16 93.96 29.52C93.96 33.12 96.88 35.28 102.24 35.28C107.64 35.28 109.16 32.08 109.16 28.8C109.16 24.68 108.56 18.44 108.56 12.28C108.56 9.92 108.6 7.08 108.68 5.6C108.72 4.84 108.8 4 108.92 3.2ZM89.2 3.48L85.68 3.16C85.64 4.04 85.56 5.08 85.4 6.04C84.92 9.32 83.56 16.96 83.56 22.84C83.56 28.24 84.32 32.64 85.08 35.52L87.92 35.28C87.88 34.88 87.84 34.28 87.8 33.88C87.76 33.44 87.84 32.64 87.96 32.08C88.36 30.12 89.84 26.04 90.84 23.24L89.2 21.96C88.52 23.6 87.52 26.04 86.88 27.88C86.6 25.92 86.48 24.24 86.48 22.28C86.48 17.8 87.68 9.88 88.48 6.16C88.64 5.44 88.96 4.12 89.2 3.48Z" fill="black"/>
</svg>
