<svg width="41" height="42" viewBox="0 0 41 42" fill="none" xmlns="http://www.w3.org/2000/svg">
<path d="M13.856 0.983997H9.632C9.872 1.992 9.968 3.624 9.968 5.496C10.016 8.04 10.016 15.624 10.016 18.264L13.52 20.184C13.52 16.92 13.472 7.896 13.52 5.496C13.52 3.768 13.664 1.992 13.856 0.983997ZM30.656 5.832L28.16 8.328C30.848 10.2 35.216 14.376 37.568 17.4L40.256 14.664C38.048 11.976 33.488 7.704 30.656 5.832ZM0.416 7.32L0.56 10.872C3.392 11.256 6.128 11.352 8.24 11.352C12.176 11.352 17.84 10.728 22.736 9.624V5.928C17.888 7.272 12.56 7.992 8 7.992C5.6 7.992 3.248 7.8 0.416 7.32ZM12.32 28.968L8.72 30.216C8.624 31.752 8.528 33.48 8.528 35.208C8.528 38.76 9.92 41.064 19.568 41.064C22.736 41.064 27.392 40.632 29.504 40.104C33.824 38.904 35.552 36.84 35.744 32.328C35.792 30.312 35.744 29.064 35.744 27.144L31.616 25.848C31.856 27.768 31.904 29.4 31.904 31.272C31.904 34.44 30.416 35.88 27.92 36.648C26.192 37.128 22.496 37.464 19.808 37.464C12.8 37.464 12.128 36.456 12.128 33.768C12.128 32.328 12.224 29.976 12.32 28.968ZM14.768 22.632C14.768 18.792 12.56 16.008 8.72 16.008C3.968 16.008 0.848 20.52 0.848 25.416C0.848 31.032 4.304 33 7.04 33C13.088 33 14.768 26.952 14.768 22.632ZM7.424 29.448C5.648 29.448 4.064 27.912 4.064 25.224C4.064 21.624 6.128 19.08 8.48 19.08C10.16 19.08 11.264 20.52 11.264 22.824C11.264 26.04 10.304 29.448 7.424 29.448Z" fill="black"/>
</svg>
