<svg width="85" height="44" viewBox="0 0 85 44" fill="none" xmlns="http://www.w3.org/2000/svg">
<path d="M2.808 1.656V4.968H13.224V26.952H2.808V30.312H16.584V1.656H2.808ZM2.856 14.088V17.352H14.664V14.088H2.856ZM23.112 0.743998V4.104H39.288V0.743998H23.112ZM23.112 12.408V15.72H39.288V12.408H23.112ZM22.824 24.216V27.48H39.192V24.216H22.824ZM0.84 1.656V34.776H4.2V1.656H0.84ZM37.944 0.743998V38.088C37.944 38.952 37.656 39.24 36.792 39.288C35.928 39.288 32.904 39.336 29.832 39.24C30.36 40.2 30.936 41.784 31.128 42.744C35.256 42.744 37.896 42.696 39.432 42.12C40.968 41.496 41.544 40.392 41.544 38.136V0.743998H37.944ZM21 0.743998V17.88C21 25.368 20.184 34.488 12.072 40.728C12.84 41.208 14.184 42.456 14.712 43.176C23.352 36.552 24.552 25.944 24.552 17.88V0.743998H21ZM53.448 1.944V42.312H57.144V5.592H81.096V42.12H84.888V1.944H53.448ZM55.896 18.6V22.152H82.68V18.6H55.896ZM55.848 35.592V39.192H82.776V35.592H55.848Z" fill="black"/>
</svg>
