<svg width="38" height="43" viewBox="0 0 38 43" fill="none" xmlns="http://www.w3.org/2000/svg">
<path d="M5.712 4.872L1.632 4.584C1.68 5.16 1.632 5.928 1.536 6.744C1.296 9.432 0.288001 16.056 0.288001 21.432C0.288001 25.992 1.008 30.84 1.872 33.912L5.232 33.384C4.944 32.136 4.656 29.88 4.56 28.872C4.512 27.816 4.704 26.76 4.896 25.896C6.528 19.032 13.056 10.728 23.136 10.728C30.432 10.728 33.84 15.144 33.84 20.376C33.84 26.712 29.472 30.552 22.8 30.552C17.472 30.552 14.016 27.768 11.808 23.064L9.504 25.752C12.144 31.128 17.232 34.2 22.752 34.2C32.64 34.2 37.488 28.104 37.488 20.28C37.488 13.128 32.208 7.512 23.232 7.512C14.88 7.512 6.96 13.032 3.792 21.288C3.504 17.544 4.464 10.248 5.088 7.128C5.28 6.36 5.52 5.544 5.712 4.872ZM22.272 0.935998L18.288 1.08C18.576 1.752 18.864 3 19.104 4.008C19.632 6.552 20.352 12.36 20.352 18.552C20.352 27.912 18.24 35.88 10.752 39.96L14.256 42.072C21.936 37.032 23.952 28.488 23.952 18.504C23.952 11.448 22.992 4.344 22.272 0.935998Z" fill="black"/>
</svg>
