<svg width="46" height="40" viewBox="0 0 46 40" fill="none" xmlns="http://www.w3.org/2000/svg">
<path d="M23.144 11.744L25.544 14.048C27.368 12.8 30.056 10.64 31.208 9.68L30.296 7.232C27.416 5.12 22.136 2.48 18.44 0.943999L16.232 3.728C19.928 5.216 24.392 7.616 26.504 9.344C25.784 9.92 24.44 10.928 23.144 11.744ZM13.88 34.688L14.408 38.672C16.568 39.056 19.208 39.392 22.28 39.392C25.736 39.392 30.536 38.096 30.536 32.192C30.536 27.872 27.368 23.648 22.856 18.896C21.752 17.696 20.504 16.4 19.352 15.2L16.52 17.648C17.864 18.8 19.304 20.144 20.36 21.296C23.048 24.224 26.504 28.544 26.504 31.76C26.504 34.88 23.864 35.792 21.656 35.792C18.632 35.792 16.328 35.408 13.88 34.688ZM41.576 36.464L45.128 34.544C43.64 30.32 40.04 23.408 36.728 19.568L33.56 21.296C36.872 25.04 40.232 31.904 41.576 36.464ZM15.512 27.152L13.256 24.272C10.52 27.248 4.952 31.52 0.968 33.68L3.272 36.848C7.928 34.064 12.728 30.032 15.512 27.152Z" fill="black"/>
</svg>
