<svg width="40" height="41" viewBox="0 0 40 41" fill="none" xmlns="http://www.w3.org/2000/svg">
<path d="M31.528 0.607998H27.016C27.208 1.328 27.4 2.384 27.496 3.44C27.64 5.456 27.832 12.896 27.832 15.968C27.832 25.184 27.592 30.656 22.456 35.12C21.256 36.32 19.288 37.52 17.8 38.144L21.304 40.832C31.48 34.88 31.48 27.008 31.48 16.016C31.48 13.328 31.288 5.216 31.336 3.44C31.336 2.336 31.384 1.376 31.528 0.607998ZM13.96 10.544V14.336C16.072 14.528 19.432 14.672 21.784 14.672C27.88 14.672 34.6 14.24 39.256 13.472V9.584C34.456 10.688 27.64 11.072 21.736 11.072C19.096 11.072 16.072 10.88 13.96 10.544ZM7.24 1.328L2.776 0.847998C2.728 1.712 2.68 3.008 2.536 4.064C1.96 8.096 0.712 15.44 0.712 23.264C0.712 29.264 2.248 35.504 3.208 38.48L6.52 38.096C6.472 37.568 6.376 36.944 6.376 36.464C6.328 35.888 6.424 34.976 6.568 34.304C7.096 31.904 8.536 27.008 9.688 23.696L7.624 22.448C6.76 24.8 5.704 27.728 5.08 29.792C3.208 21.92 4.888 11.408 6.424 4.448C6.616 3.536 6.952 2.192 7.24 1.328Z" fill="black"/>
</svg>
