<svg width="135" height="45" viewBox="0 0 135 45" fill="none" xmlns="http://www.w3.org/2000/svg">
<path d="M22.808 4.184C27.224 10.136 35.576 16.712 43.016 20.552C43.64 19.496 44.504 18.248 45.368 17.384C37.832 14.024 29.528 7.592 24.44 0.631999H20.744C17.048 6.68 9.08 13.784 0.776 17.96C1.544 18.728 2.552 19.976 2.984 20.84C11.096 16.52 18.824 9.896 22.808 4.184ZM10.904 15.32V18.584H35V15.32H10.904ZM4.712 24.968V28.184H41.24V24.968H4.712ZM2.504 40.136V43.304H43.544V40.136H2.504ZM20.888 16.568V41.816H24.68V16.568H20.888ZM8.696 30.632C10.616 33.32 12.488 37.064 13.112 39.464L16.232 38.12C15.56 35.72 13.592 32.072 11.624 29.432L8.696 30.632ZM33.8 29.336C32.6 32.072 30.344 35.912 28.616 38.264L31.352 39.464C33.128 37.208 35.384 33.752 37.208 30.728L33.8 29.336ZM65.912 8.504V11.048H75.752V8.504H65.912ZM65.096 2.504V5.096H74.024V14.6H65.048V17.24H77.192V2.504H65.096ZM79.832 8.504V11.048H89.96V8.504H79.832ZM79.16 2.504V5.096H88.328V14.6H79.112V17.24H91.496V2.504H79.16ZM69.368 27.56V30.104H90.68V27.56H69.368ZM69.368 33.8V36.344H90.68V33.8H69.368ZM69.512 40.328V43.112H93.08V40.328H69.512ZM70.472 16.568C68.888 20.552 65.576 25.304 62.072 28.28C62.696 28.856 63.704 30.008 64.232 30.68C68.12 27.368 71.672 22.232 73.832 17.576L70.472 16.568ZM70.76 21.032H70.232L67.448 23.96V44.6H70.76V23.864H91.88V21.032H70.76ZM80.504 16.856C80.024 18.488 78.968 20.984 78.152 22.664L80.84 23.48C81.8 21.992 83 19.784 84.056 17.672L80.504 16.856ZM78.2 23.192V41.384H81.416V23.192H78.2ZM52.376 3.704V6.968H59.816V32.36H52.376V35.576H63.08V3.704H52.376ZM52.568 17.768V20.984H61.496V17.768H52.568ZM50.696 3.704V39.56H53.912V3.704H50.696ZM103.448 3.944V44.312H107.144V7.592H131.096V44.12H134.888V3.944H103.448ZM105.896 20.6V24.152H132.68V20.6H105.896ZM105.848 37.592V41.192H132.776V37.592H105.848Z" fill="black"/>
</svg>
