<svg width="39" height="35" viewBox="0 0 39 35" fill="none" xmlns="http://www.w3.org/2000/svg">
<path d="M4.704 0.543999L0.0480001 0.447997C0.336 1.552 0.336 3.616 0.336 4.72C0.336 7.504 0.432 13.36 0.864 17.488C2.208 29.92 6.528 34.432 11.088 34.432C14.352 34.432 17.232 31.648 20.16 23.536L17.136 20.128C15.888 24.928 13.632 29.872 11.184 29.872C7.728 29.872 5.424 24.544 4.608 16.528C4.272 12.592 4.224 8.176 4.272 5.2C4.32 3.952 4.464 1.648 4.704 0.543999ZM29.664 1.84L25.968 3.136C30.528 8.752 33.456 18.64 34.272 27.28L38.16 25.744C37.44 17.632 33.984 7.408 29.664 1.84Z" fill="black"/>
</svg>
