<svg width="42" height="42" viewBox="0 0 42 42" fill="none" xmlns="http://www.w3.org/2000/svg">
<path d="M24.592 8.568L27.328 6.408C25.552 4.536 21.904 1.512 20.32 0.263998L17.584 2.232C19.6 3.768 22.768 6.696 24.592 8.568ZM9.328 4.392L5.44 5.976C6.208 6.936 7.168 8.472 7.744 9.432C9.376 12.168 11.536 16.824 13.792 21.864C16.528 28.152 18.832 35.832 20.32 41.544L24.448 40.44C22.816 35.112 19.744 26.232 17.152 20.232C15.184 15.864 12.88 11.016 11.008 7.656C10.528 6.744 9.712 5.208 9.328 4.392ZM0.832 18.408L2.704 22.344C8.752 19.704 22.96 11.4 30.976 11.4C35.68 11.4 37.936 14.04 37.936 16.872C37.936 20.28 35.776 23.208 30.496 23.208C27.952 23.208 25.552 22.488 23.68 21.624L23.584 25.416C25.36 26.088 28.096 26.76 30.784 26.76C38.272 26.76 41.776 22.584 41.776 17.016C41.776 11.784 37.744 8.04 31.072 8.04C23.104 8.04 11.44 14.568 4.768 17.112C3.904 17.496 2.224 18.072 0.832 18.408Z" fill="black"/>
</svg>
