<svg width="44" height="31" viewBox="0 0 44 31" fill="none" xmlns="http://www.w3.org/2000/svg">
<path d="M0.64 18.848L4.192 22.496C4.96 21.488 6.064 20.048 7.024 18.752C9.472 15.776 13.408 10.496 15.664 7.712C17.296 5.696 18.208 5.312 20.272 7.568C22.48 10.016 26.176 14.672 29.296 18.176C32.56 21.92 36.928 26.816 40.576 30.272L43.648 26.768C39.328 22.928 34.528 17.888 31.648 14.72C28.576 11.408 24.88 6.656 22 3.728C18.832 0.464 16.336 0.943999 13.552 4.256C10.672 7.616 6.688 13.088 4.096 15.68C2.848 16.976 1.84 17.936 0.64 18.848Z" fill="black"/>
</svg>
