<svg width="41" height="42" viewBox="0 0 41 42" fill="none" xmlns="http://www.w3.org/2000/svg">
<path d="M26.096 0.983997H21.68C21.776 1.416 21.92 2.76 22.016 4.056C22.16 6.696 22.208 16.248 22.208 18.36L25.856 20.232C25.808 16.392 25.712 7.128 25.856 4.008C25.856 3.432 26 1.56 26.096 0.983997ZM0.56 7.704L0.656 11.4C7.904 10.872 18.176 10.536 26.432 10.536C33.488 10.536 37.808 10.632 40.496 10.776L40.544 7.224C38.288 7.176 32.336 7.176 26.48 7.176C19.088 7.176 7.088 7.608 0.56 7.704ZM25.76 21.624L23.12 20.28C23.888 25.416 21.968 27.912 18.992 27.912C16.352 27.912 14.096 26.184 14.096 23.16C14.096 20.04 16.448 18.072 18.992 18.072C21.584 18.072 23.696 19.896 23.696 24.216C23.696 32.136 18.608 36.408 9.872 38.472L13.088 41.592C24.224 38.28 27.392 31.08 27.392 24.552C27.392 19.032 24.56 14.904 18.992 14.904C14.432 14.904 10.496 18.456 10.496 23.208C10.496 28.44 14.384 31.272 18.416 31.272C22.784 31.272 25.76 28.056 25.76 21.624Z" fill="black"/>
</svg>
