<svg width="29" height="42" viewBox="0 0 29 42" fill="none" xmlns="http://www.w3.org/2000/svg">
<path d="M6.224 1.128L2.048 0.983997C1.952 2.328 1.856 3.672 1.664 5.112C1.088 9.048 0.176001 16.104 0.176001 20.664C0.176001 23.784 0.416 26.472 0.656001 28.296L4.4 28.008C4.064 25.608 4.064 23.928 4.304 22.104C4.88 15.816 10.448 7.08 16.448 7.08C21.488 7.08 24.032 12.552 24.032 20.136C24.032 32.184 15.92 36.408 5.456 37.992L7.76 41.448C19.616 39.288 28.016 33.384 28.016 20.088C28.016 10.008 23.408 3.576 17.072 3.576C10.976 3.576 5.984 9.576 4.016 14.52C4.304 11.16 5.216 4.68 6.224 1.128Z" fill="black"/>
</svg>
