<svg width="46" height="46" viewBox="0 0 46 46" fill="none" xmlns="http://www.w3.org/2000/svg">
<path d="M34.232 25.016C37.256 28.856 40.616 34.136 42.008 37.4L45.464 35.72C43.928 32.408 40.472 27.32 37.4 23.576L34.232 25.016ZM21.032 0.775997V17.912H24.728V0.775997H21.032ZM1.736 16.76V20.216H44.36V16.76H1.736ZM6.488 6.488V9.944H40.568V6.488H6.488ZM27.08 18.632V40.376C27.08 41 26.888 41.192 26.12 41.192C25.4 41.24 22.904 41.288 20.168 41.192C20.696 42.248 21.272 43.784 21.464 44.792C25.064 44.792 27.416 44.744 28.904 44.168C30.392 43.544 30.824 42.536 30.824 40.424V18.632H27.08ZM8.216 23.816C6.824 27.656 3.848 32.264 0.488 35.144C1.352 35.624 2.648 36.536 3.368 37.208C6.824 34.088 9.992 29.144 11.864 24.776L8.216 23.816ZM16.28 18.2V23.048C16.28 28.952 15.512 36.68 6.632 42.536C7.496 43.16 8.792 44.36 9.32 45.176C18.92 38.696 19.928 29.912 19.928 23.096V18.2H16.28Z" fill="black"/>
</svg>
