<svg width="23" height="36" viewBox="0 0 23 36" fill="none" xmlns="http://www.w3.org/2000/svg">
<path d="M0.613636 36V32.9318L12.1364 20.3182C13.4886 18.8409 14.6023 17.5568 15.4773 16.4659C16.3523 15.3636 17 14.3295 17.4205 13.3636C17.8523 12.3864 18.0682 11.3636 18.0682 10.2955C18.0682 9.06818 17.7727 8.00568 17.1818 7.10795C16.6023 6.21023 15.8068 5.51704 14.7955 5.02841C13.7841 4.53977 12.6477 4.29545 11.3864 4.29545C10.0455 4.29545 8.875 4.57386 7.875 5.13068C6.88636 5.67614 6.11932 6.44318 5.57386 7.43182C5.03977 8.42045 4.77273 9.57955 4.77273 10.9091H0.75C0.75 8.86364 1.22159 7.06818 2.16477 5.52273C3.10795 3.97727 4.39205 2.77273 6.01705 1.90909C7.65341 1.04545 9.48864 0.613635 11.5227 0.613635C13.5682 0.613635 15.3807 1.04545 16.9602 1.90909C18.5398 2.77273 19.7784 3.9375 20.6761 5.40341C21.5739 6.86932 22.0227 8.5 22.0227 10.2955C22.0227 11.5795 21.7898 12.8352 21.3239 14.0625C20.8693 15.2784 20.0739 16.6364 18.9375 18.1364C17.8125 19.625 16.25 21.4432 14.25 23.5909L6.40909 31.9773V32.25H22.6364V36H0.613636Z" fill="black"/>
</svg>
