<svg width="93" height="45" viewBox="0 0 93 45" fill="none" xmlns="http://www.w3.org/2000/svg">
<path d="M24.152 11.336V14.456H40.856V11.336H24.152ZM18.584 40.856L19.64 44.36C24.056 43.304 29.816 41.864 35.288 40.424L34.904 37.064C28.952 38.552 22.712 40.04 18.584 40.856ZM24.2 2.696V5.96H39.272V20.12H24.2V23.384H42.776V2.696H24.2ZM33.368 21.992L30.296 22.52C32.312 32.792 36.392 41 43.592 44.936C44.12 44.024 45.176 42.632 45.944 41.96C39.176 38.696 35.192 31.016 33.368 21.992ZM42.2 25.304C40.232 27.368 36.872 30.2 34.52 31.832L36.584 33.992C39.032 32.408 42.296 30.008 44.696 27.752L42.2 25.304ZM22.616 2.696V41.816L26.024 41.192V2.696H22.616ZM4.28 12.584V15.656H18.872V12.584H4.28ZM1.88 20.792V23.96H20.12V20.792H1.88ZM2.888 27.272C3.848 30.152 4.664 33.8 4.808 36.248L7.496 35.528C7.304 33.176 6.44 29.48 5.432 26.648L2.888 27.272ZM1.256 40.136L2.072 43.4C7.16 42.44 14.168 41 20.696 39.656L20.456 36.584C13.352 37.976 5.96 39.32 1.256 40.136ZM16.712 26.12C16.28 28.712 15.224 32.552 14.36 34.904L16.712 35.672C17.624 33.464 18.68 29.912 19.64 26.936L16.712 26.12ZM9.704 13.976V40.424L12.92 39.896V13.976H9.704ZM9.464 0.727998C7.736 4.568 4.568 9.464 0.0560001 13.112C0.728 13.592 1.784 14.696 2.312 15.416C7.256 11.288 10.52 6.152 12.44 2.456V1.496H11.384V0.727998H9.464ZM10.04 0.727998V3.272H10.712C13.784 5.768 17.336 9.896 19.064 12.44L21.512 9.704C19.688 7.16 15.848 3.368 12.728 0.727998H10.04ZM56.504 24.68V27.992H86.648V24.68H56.504ZM69.56 13.928V26.36H73.16V13.928H69.56ZM56.36 12.632V15.896H85.448V30.104H89.096V12.632H56.36ZM54.536 12.632V37.208C54.536 42.968 56.888 44.36 64.664 44.36C66.44 44.36 81.512 44.36 83.432 44.36C90.584 44.36 92.072 42.248 92.888 35.144C91.784 34.952 90.248 34.424 89.336 33.8C88.76 39.704 87.992 40.952 83.336 40.952C80.12 40.952 66.968 40.952 64.424 40.952C59.144 40.952 58.136 40.28 58.136 37.208V12.632H54.536ZM62.552 3.896L60.92 7.112H77.624V3.896H62.552ZM62.648 0.535997C60.056 5.384 55.208 11.336 48.68 15.752C49.544 16.328 50.744 17.528 51.32 18.392C58.232 13.352 63.224 7.016 66.632 1.304L62.648 0.535997ZM76.04 3.896V4.616C74.936 7.304 72.632 11.096 70.568 13.4C71.24 13.928 72.344 14.984 72.872 15.704C75.32 13.112 78.152 8.984 80.024 5.288L77.576 3.704L76.856 3.896H76.04Z" fill="black"/>
</svg>
