<svg width="43" height="39" viewBox="0 0 43 39" fill="none" xmlns="http://www.w3.org/2000/svg">
<path d="M7.704 0.815998L7.848 4.752C9 4.608 10.392 4.464 11.448 4.416C13.608 4.32 19.464 4.032 21.384 3.984C19.752 7.392 17.592 12.336 15.672 16.512C13.848 20.544 11.688 26.112 9.72 28.704C8.712 30 7.896 30.384 6.792 30.384C5.304 30.384 3.912 29.28 3.912 27.12C3.912 22.704 8.472 18.24 16.44 18.24C26.328 18.24 35.112 23.568 40.728 28.416L42.504 24.336C37.32 20.64 27.816 14.88 17.016 14.88C7.272 14.88 0.456 20.4 0.456 27.648C0.456 31.632 3.096 34.224 6.648 34.224C9.144 34.224 11.016 33.312 12.696 30.864C14.76 27.888 17.4 21.36 19.32 17.136C21.528 12.192 24.168 6.048 25.704 3.552C26.088 2.928 26.472 2.448 26.952 1.92L24.552 -2.86102e-06C23.88 0.239997 23.064 0.431997 22.152 0.48C20.136 0.671997 13.848 0.959999 11.304 0.959999C10.296 0.959999 8.904 0.912 7.704 0.815998ZM37.704 11.328L33.768 10.896C33.912 12.288 33.864 13.92 33.768 15.36C33.24 22.464 31.176 31.536 19.896 36.288L23.064 38.928C34.248 33.312 37.032 25.008 37.704 11.328Z" fill="black"/>
</svg>
