<svg width="41" height="39" viewBox="0 0 41 39" fill="none" xmlns="http://www.w3.org/2000/svg">
<path d="M29.752 4.36H26.296C26.296 7 26.296 12.184 26.296 15.592C26.296 20.584 26.872 27.688 26.872 30.376C26.872 32.968 25.912 34.888 22.168 34.888C18.808 34.888 16.648 33.64 16.648 31.288C16.648 29.176 18.904 27.784 22.36 27.784C28.024 27.784 33.784 30.952 38.344 35.656L40.36 32.296C36.76 29.08 30.952 24.904 22.456 24.904C16.072 24.904 13.288 28.12 13.288 31.48C13.288 35.992 17.176 38.2 22.504 38.2C27.64 38.2 30.376 35.944 30.376 32.008C30.376 28.216 29.752 21.496 29.752 15.448C29.752 12.472 29.752 7.864 29.752 4.36ZM14.68 13.72L14.728 17.224C23.272 17.704 32.536 17.224 38.68 16.552V13.048C32.152 13.816 23.32 14.392 14.68 13.72ZM15.448 2.584V5.992C23.224 6.376 32.104 5.896 37.624 5.32V1.912C32.008 2.728 23.176 3.208 15.448 2.584ZM7.192 0.615999L2.968 0.231998C2.968 1.24 2.824 2.536 2.632 3.64C2.056 7.624 0.472 16.552 0.472 23.608C0.472 30.088 1.336 35.368 2.296 38.824L5.752 38.536C5.704 38.056 5.608 37.336 5.608 36.856C5.56 36.328 5.656 35.416 5.8 34.744C6.328 32.392 8.008 27.448 9.208 24.136L7.288 22.552C6.424 24.472 5.224 27.544 4.504 29.704C4.168 27.352 4.024 25.288 4.024 22.936C4.024 17.56 5.416 8.296 6.376 3.832C6.52 2.968 6.904 1.432 7.192 0.615999Z" fill="black"/>
</svg>
