<svg width="32" height="41" viewBox="0 0 32 41" fill="none" xmlns="http://www.w3.org/2000/svg">
<path d="M27.512 22.064C27.512 30.656 19.304 35.216 7.64 36.704L9.848 40.352C22.28 38.432 31.592 32.624 31.592 22.208C31.592 15.344 26.552 11.552 19.736 11.552C14.168 11.552 8.744 13.088 5.384 13.856C3.896 14.144 2.312 14.48 0.968 14.576L2.168 18.992C3.32 18.512 4.76 17.984 6.248 17.552C9.032 16.736 13.784 15.152 19.304 15.152C24.248 15.152 27.512 17.984 27.512 22.064ZM7.352 0.415998L6.776 4.064C12.2 5.024 21.848 5.984 27.176 6.368L27.752 2.672C23.096 2.624 12.68 1.616 7.352 0.415998Z" fill="black"/>
</svg>
