<svg width="153" height="34" viewBox="0 0 153 34" fill="none" xmlns="http://www.w3.org/2000/svg">
<path d="M12.4 0.0799985H8.88C9 0.719997 9.08 2.12 9.08 2.88C9.08 4.52 8.92 11.04 8.92 15.64C8.92 20.08 9.12 25.64 9.12 27.96C9.12 29.28 8.6 29.92 7.68 29.92C6.12 29.92 3.32 28.32 3.32 26.52C3.32 24.48 6.4 21.8 10.32 20.28C13.72 18.92 17 18.16 20.6 18.16C24.36 18.16 27.44 19.96 27.44 23.36C27.44 27.08 24.24 28.96 20.76 29.64C19.24 29.96 17.56 29.92 16.04 29.92L17.16 33.12C18.56 33.04 20.36 32.96 22.12 32.56C27.64 31.28 30.68 28.2 30.68 23.36C30.68 18.56 26.48 15.4 20.6 15.4C17.44 15.4 13.44 16.12 9.88 17.52C4.92 19.4 0.16 23.12 0.16 26.64C0.16 30.24 5.36 33.28 8.48 33.28C10.68 33.28 12.04 32.08 12.04 28.4C12.04 25.88 11.84 19.64 11.84 15.48C11.84 11.32 12.04 5.2 12.16 2.84C12.2 1.88 12.28 0.799999 12.4 0.0799985ZM24.84 4.52L23.36 6.92C25.92 8.28 30.4 11.04 32.36 12.88L33.96 10.32C32.04 8.72 27.68 6 24.84 4.52ZM0.84 7.24L0.92 10.32C2.24 10.44 3.76 10.52 6 10.52C9.6 10.52 16.16 9.64 20.28 8.64L20.2 5.52C16.24 6.72 9.88 7.56 5.92 7.56C4.48 7.56 3.04 7.52 0.84 7.24ZM68.52 8.16L66.8 5.28C65.96 5.96 65.08 6.48 63.92 7.16C61.32 8.64 55.72 11.32 51.64 14.04C46.92 17.16 44 20.56 44 24.88C44 30.88 49.44 33.12 56.96 33.12C61.96 33.12 66.6 32.68 69.6 32.16L69.64 28.56C66.52 29.36 61.16 29.92 56.84 29.92C50.52 29.92 47.32 27.84 47.32 24.52C47.32 21.52 49.56 18.88 53.28 16.44C57.2 13.88 62.76 11.24 65.44 9.84C66.64 9.24 67.64 8.68 68.52 8.16ZM48.28 0.879998L45.12 2.24C47.28 7.2 49.68 12.6 51.72 15.88L54.44 14.24C52.6 11 50.12 6 48.28 0.879998ZM108.52 8.16L106.8 5.28C105.96 5.96 105.08 6.48 103.92 7.16C101.32 8.64 95.72 11.32 91.64 14.04C86.92 17.16 84 20.56 84 24.88C84 30.88 89.44 33.12 96.96 33.12C101.96 33.12 106.6 32.68 109.6 32.16L109.64 28.56C106.52 29.36 101.16 29.92 96.84 29.92C90.52 29.92 87.32 27.84 87.32 24.52C87.32 21.52 89.56 18.88 93.28 16.44C97.2 13.88 102.76 11.24 105.44 9.84C106.64 9.24 107.64 8.68 108.52 8.16ZM88.28 0.879998L85.12 2.24C87.28 7.2 89.68 12.6 91.72 15.88L94.44 14.24C92.6 11 90.12 6 88.28 0.879998ZM124.92 4.12L121.04 4.04C121.28 4.96 121.28 6.68 121.28 7.6C121.28 9.92 121.36 14.8 121.72 18.24C122.84 28.6 126.44 32.36 130.24 32.36C132.96 32.36 135.36 30.04 137.8 23.28L135.28 20.44C134.24 24.44 132.36 28.56 130.32 28.56C127.44 28.56 125.52 24.12 124.84 17.44C124.56 14.16 124.52 10.48 124.56 8C124.6 6.96 124.72 5.04 124.92 4.12ZM145.72 5.2L142.64 6.28C146.44 10.96 148.88 19.2 149.56 26.4L152.8 25.12C152.2 18.36 149.32 9.84 145.72 5.2Z" fill="black"/>
</svg>
