<svg width="27" height="43" viewBox="0 0 27 43" fill="none" xmlns="http://www.w3.org/2000/svg">
<path d="M25.792 3.624L22.192 0.455998C21.664 1.32 20.416 2.712 19.456 3.672C16.24 6.936 8.944 12.696 5.296 15.72C0.976 19.368 0.448001 21.432 4.96 25.224C9.472 28.92 16.72 35.16 20.128 38.616C21.28 39.816 22.432 40.968 23.44 42.12L26.848 39C21.76 33.864 13.264 27.048 8.896 23.448C5.776 20.856 5.824 20.136 8.704 17.64C12.256 14.664 19.168 9.24 22.48 6.36C23.248 5.688 24.736 4.392 25.792 3.624Z" fill="black"/>
</svg>
