<svg width="39" height="41" viewBox="0 0 39 41" fill="none" xmlns="http://www.w3.org/2000/svg">
<path d="M9.976 0.175998L9.352 3.68C15.208 4.736 23.608 5.792 28.408 6.224L28.936 2.672C24.328 2.432 15.16 1.328 9.976 0.175998ZM29.896 13.904L27.592 11.264C27.112 11.456 26.104 11.696 25.288 11.792C21.64 12.272 10.504 12.992 7.72 13.088C6.184 13.088 4.792 13.088 3.688 12.992L4.024 17.168C5.032 17.024 6.28 16.832 7.864 16.736C10.792 16.496 18.856 15.776 22.648 15.584C17.944 20.288 4.888 33.392 2.92 35.312C2.008 36.224 1.144 36.992 0.52 37.472L4.168 40.016C6.904 36.56 12.136 31.04 13.912 29.36C15.016 28.256 16.168 27.584 17.464 27.584C18.808 27.584 19.864 28.496 20.392 30.176C20.872 31.52 21.544 34.352 22.024 35.792C23.08 38.96 25.432 39.872 29.32 39.872C31.864 39.872 36.28 39.536 38.296 39.152L38.584 35.12C36.28 35.696 32.632 36.128 29.512 36.128C27.016 36.128 25.912 35.312 25.336 33.488C24.856 31.952 24.184 29.504 23.704 28.112C23.032 26.144 21.928 24.896 20.104 24.704C19.576 24.56 18.712 24.56 18.184 24.608C20.008 22.736 25.384 17.696 27.208 16.016C27.784 15.536 28.984 14.528 29.896 13.904Z" fill="black"/>
</svg>
