<svg width="41" height="39" viewBox="0 0 41 39" fill="none" xmlns="http://www.w3.org/2000/svg">
<path d="M30.232 0.527999L26.44 1.632C29.272 11.424 32.536 18.624 37.864 24.288L40.408 20.88C33.304 14.544 31.24 6.336 30.232 0.527999ZM0.184 3.12L0.472 7.152C1.48 6.96 2.296 6.864 3.208 6.72C4.936 6.528 8.872 6.048 11.32 5.664C7.096 10.416 2.392 17.328 2.392 26.256C2.392 34.224 7.912 38.448 15.448 38.448C30.52 38.448 33.208 23.616 30.712 9.888L27.208 3.408C30.856 22.224 26.968 34.512 15.544 34.512C10.6 34.512 6.136 32.256 6.136 25.44C6.136 15.6 13.48 7.2 16.504 4.944C17.224 4.608 18.424 4.272 19.048 4.08L17.944 0.719999C15.112 1.776 7.048 2.928 2.776 3.12C1.912 3.168 0.904 3.168 0.184 3.12Z" fill="black"/>
</svg>
