<svg width="153" height="29" viewBox="0 0 153 29" fill="none" xmlns="http://www.w3.org/2000/svg">
<path d="M1.988 3.568V6.16C4.516 6.384 7.268 6.512 10.468 6.512C13.412 6.512 16.9 6.288 19.076 6.128V3.504C16.772 3.76 13.54 3.952 10.468 3.952C7.236 3.952 4.292 3.824 1.988 3.568ZM3.268 16.464L0.676 16.208C0.388 17.488 0.0360003 18.992 0.0360003 20.656C0.0360003 24.688 3.812 26.8 10.308 26.8C14.852 26.8 18.916 26.32 21.22 25.712L21.188 22.96C18.756 23.728 14.628 24.208 10.244 24.208C5.124 24.208 2.628 22.544 2.628 20.08C2.628 18.896 2.884 17.712 3.268 16.464ZM44.004 2.256L41.156 1.104C40.772 2.064 40.356 2.832 40.004 3.6C38.244 6.672 31.236 19.792 28.9 26.256L31.652 27.216C32.1 25.648 33.444 21.84 34.436 19.952C35.652 17.424 38.084 14.8 40.644 14.8C42.084 14.8 42.916 15.664 42.98 17.04C43.076 18.8 43.044 21.264 43.14 23.152C43.236 25.04 44.356 27.184 47.78 27.184C52.42 27.184 55.108 23.6 56.804 18.448L54.66 16.72C53.86 20.144 51.748 24.56 48.164 24.56C46.788 24.56 45.7 23.856 45.604 22.256C45.476 20.688 45.54 18.256 45.476 16.368C45.38 13.84 43.844 12.464 41.7 12.464C40.164 12.464 38.5 13.072 36.964 14.448C38.596 11.344 41.54 6.032 42.98 3.824C43.332 3.216 43.716 2.64 44.004 2.256ZM73.06 4.4L73.092 6.992C76.58 7.376 82.788 7.376 86.212 6.992V4.4C83.044 4.88 76.548 5.008 73.06 4.4ZM74.308 17.456L72.004 17.232C71.652 18.768 71.492 19.92 71.492 20.976C71.492 23.984 73.892 25.776 79.236 25.776C82.564 25.776 85.252 25.52 87.236 25.104L87.172 22.416C84.612 23.024 82.116 23.28 79.268 23.28C74.884 23.28 73.86 21.84 73.86 20.368C73.86 19.504 74.02 18.608 74.308 17.456ZM66.98 1.936L64.132 1.712C64.1 2.416 64.004 3.216 63.908 3.952C63.524 6.608 62.468 12.08 62.468 16.784C62.468 21.136 63.012 24.816 63.652 27.088L65.924 26.928C65.892 26.576 65.86 26.128 65.828 25.808C65.828 25.424 65.892 24.816 65.988 24.368C66.276 22.832 67.46 19.472 68.26 17.2L66.916 16.144C66.372 17.456 65.636 19.376 65.092 20.816C64.9 19.248 64.804 17.904 64.804 16.368C64.804 12.752 65.796 7.056 66.404 4.08C66.532 3.504 66.788 2.48 66.98 1.936ZM104.036 0.943998L101.156 0.815998C101.22 1.68 101.156 2.448 101.028 3.472C100.644 6.544 98.948 14.48 96.516 19.248L98.884 20.08C99.204 19.536 99.492 19.088 99.876 18.608C101.988 16.08 105.54 14.768 109.348 14.768C113.092 14.768 115.044 16.624 115.044 18.992C115.044 24.272 107.876 25.52 100.452 24.496L101.124 27.056C110.852 28.08 117.668 25.616 117.668 18.928C117.668 15.184 114.692 12.592 109.604 12.592C106.276 12.592 103.396 13.392 100.612 15.344C101.7 12.368 102.98 6.192 103.428 3.632C103.62 2.8 103.78 1.808 104.036 0.943998ZM94.084 5.04L94.116 7.536C95.94 7.696 97.988 7.856 100.164 7.856C104.548 7.856 111.076 7.216 115.62 6.416L115.556 3.952C110.532 5.072 104.228 5.552 100.132 5.552C98.212 5.552 95.78 5.328 94.084 5.04ZM135.236 7.088L135.268 9.52C137.124 9.648 138.788 9.712 140.644 9.712C144.388 9.712 148.292 9.456 151.684 8.88V6.416C148.452 7.088 144.516 7.376 140.676 7.376C138.788 7.376 137.06 7.28 135.236 7.088ZM146.436 1.36H143.556C143.652 1.936 143.684 2.768 143.684 3.344C143.684 4.464 143.716 6.48 143.716 8.688C143.716 12.912 144.132 18.896 144.132 21.2C144.132 23.344 143.364 24.688 140.676 24.688C138.34 24.688 136.772 23.824 136.772 22.16C136.772 20.624 138.436 19.568 140.836 19.568C144.9 19.568 148.132 21.744 151.492 24.88L152.868 22.768C150.18 20.336 146.436 17.616 141.06 17.616C136.836 17.616 134.468 19.728 134.468 22.416C134.468 25.296 136.804 27.024 141.092 27.024C145.412 27.024 146.628 24.464 146.628 21.84C146.628 18.544 146.148 13.552 146.148 8.624C146.148 6.736 146.18 4.464 146.244 3.28C146.276 2.672 146.34 2 146.436 1.36ZM130.66 1.584L127.844 1.328C127.812 2.032 127.748 2.864 127.62 3.632C127.236 6.256 126.148 12.368 126.148 17.072C126.148 21.392 126.756 24.912 127.364 27.216L129.636 27.024C129.604 26.704 129.572 26.224 129.54 25.904C129.508 25.552 129.572 24.912 129.668 24.464C129.988 22.896 131.172 19.632 131.972 17.392L130.66 16.368C130.116 17.68 129.316 19.632 128.804 21.104C128.58 19.536 128.484 18.192 128.484 16.624C128.484 13.04 129.444 6.704 130.084 3.728C130.212 3.152 130.468 2.096 130.66 1.584Z" fill="black"/>
</svg>
