<svg width="24" height="36" viewBox="0 0 24 36" fill="none" xmlns="http://www.w3.org/2000/svg">
<path d="M11.5227 35.4773C9.52273 35.4773 7.72159 35.0795 6.11932 34.2841C4.51705 33.4886 3.23295 32.3977 2.26705 31.0114C1.30114 29.625 0.772727 28.0455 0.681818 26.2727H4.77273C4.93182 27.8523 5.64773 29.1591 6.92045 30.1932C8.20455 31.2159 9.73864 31.7273 11.5227 31.7273C12.9545 31.7273 14.2273 31.392 15.3409 30.7216C16.4659 30.0511 17.3466 29.1307 17.983 27.9602C18.6307 26.7784 18.9545 25.4432 18.9545 23.9545C18.9545 22.4318 18.6193 21.0739 17.9489 19.8807C17.2898 18.6761 16.3807 17.7273 15.2216 17.0341C14.0625 16.3409 12.7386 15.9886 11.25 15.9773C10.1818 15.9659 9.08523 16.1307 7.96023 16.4716C6.83523 16.8011 5.90909 17.2273 5.18182 17.75L1.22727 17.2727L3.34091 0.0909081H21.4773V3.84091H6.88636L5.65909 14.1364H5.86364C6.57955 13.5682 7.47727 13.0966 8.55682 12.7216C9.63636 12.3466 10.7614 12.1591 11.9318 12.1591C14.0682 12.1591 15.9716 12.6705 17.642 13.6932C19.3239 14.7045 20.642 16.0909 21.5966 17.8523C22.5625 19.6136 23.0455 21.625 23.0455 23.8864C23.0455 26.1136 22.5455 28.1023 21.5455 29.8523C20.5568 31.5909 19.1932 32.9659 17.4545 33.9773C15.7159 34.9773 13.7386 35.4773 11.5227 35.4773Z" fill="black"/>
</svg>
