<svg width="134" height="44" viewBox="0 0 134 44" fill="none" xmlns="http://www.w3.org/2000/svg">
<path d="M7.648 9.424C6.88 14.8 5.2 20.032 1.36 22.96L4.48 25.072C8.752 21.808 10.384 15.952 11.2 10.192L7.648 9.424ZM37.792 9.376C36.16 13.552 33.136 19.36 30.784 22.912L33.808 24.304C36.256 20.848 39.328 15.424 41.68 10.912L37.792 9.376ZM21.76 0.399998H19.84V15.952C19.84 21.52 16.48 34.768 0.304 40.912C1.12 41.68 2.32 43.12 2.8 43.936C16.432 38.32 20.8 27.616 21.76 22.912C22.72 27.568 27.424 38.608 41.344 43.936C41.872 42.88 42.976 41.392 43.744 40.576C27.088 34.72 23.68 21.472 23.68 15.952V0.399998H21.76ZM64.912 7.504V10.048H74.752V7.504H64.912ZM64.096 1.504V4.096H73.024V13.6H64.048V16.24H76.192V1.504H64.096ZM78.832 7.504V10.048H88.96V7.504H78.832ZM78.16 1.504V4.096H87.328V13.6H78.112V16.24H90.496V1.504H78.16ZM68.368 26.56V29.104H89.68V26.56H68.368ZM68.368 32.8V35.344H89.68V32.8H68.368ZM68.512 39.328V42.112H92.08V39.328H68.512ZM69.472 15.568C67.888 19.552 64.576 24.304 61.072 27.28C61.696 27.856 62.704 29.008 63.232 29.68C67.12 26.368 70.672 21.232 72.832 16.576L69.472 15.568ZM69.76 20.032H69.232L66.448 22.96V43.6H69.76V22.864H90.88V20.032H69.76ZM79.504 15.856C79.024 17.488 77.968 19.984 77.152 21.664L79.84 22.48C80.8 20.992 82 18.784 83.056 16.672L79.504 15.856ZM77.2 22.192V40.384H80.416V22.192H77.2ZM51.376 2.704V5.968H58.816V31.36H51.376V34.576H62.08V2.704H51.376ZM51.568 16.768V19.984H60.496V16.768H51.568ZM49.696 2.704V38.56H52.912V2.704H49.696ZM102.448 2.944V43.312H106.144V6.592H130.096V43.12H133.888V2.944H102.448ZM104.896 19.6V23.152H131.68V19.6H104.896ZM104.848 36.592V40.192H131.776V36.592H104.848Z" fill="black"/>
</svg>
