<svg width="38" height="41" viewBox="0 0 38 41" fill="none" xmlns="http://www.w3.org/2000/svg">
<path d="M17.216 0.271999L12.944 0.0319996C13.04 0.895997 13.04 1.76 12.896 3.44C12.368 10.064 10.112 24.416 10.112 29.552C10.112 37.376 15.392 40.256 21.872 40.256C31.376 40.256 37.76 35.888 37.76 28.736C37.76 24.656 36.128 21.296 32.816 17.648L28.592 18.56C32.144 21.536 33.872 25.088 33.872 28.304C33.872 33.296 29.216 36.464 21.92 36.464C16.448 36.464 13.808 33.632 13.808 28.976C13.808 23.792 15.968 9.008 16.592 3.632C16.784 2.576 16.928 1.568 17.216 0.271999ZM1.856 6.656L1.616 10.16C5.84 11.312 11.6 12.032 15.824 12.032C19.712 12.032 22.544 11.888 25.616 11.6L25.712 7.952C22.88 8.384 19.568 8.576 15.92 8.576C11.648 8.576 5.888 7.952 1.856 6.656ZM0.656 18.608L0.464 22.256C4.832 23.6 10.64 24.176 15.872 24.176C19.088 24.176 22.064 24.08 25.28 23.744L25.328 20.096C21.968 20.576 18.656 20.672 15.344 20.672C10.928 20.672 5.312 20.24 0.656 18.608Z" fill="black"/>
</svg>
