<svg width="133" height="46" viewBox="0 0 133 46" fill="none" xmlns="http://www.w3.org/2000/svg">
<path d="M2.808 3.656V6.968H13.224V28.952H2.808V32.312H16.584V3.656H2.808ZM2.856 16.088V19.352H14.664V16.088H2.856ZM23.112 2.744V6.104H39.288V2.744H23.112ZM23.112 14.408V17.72H39.288V14.408H23.112ZM22.824 26.216V29.48H39.192V26.216H22.824ZM0.84 3.656V36.776H4.2V3.656H0.84ZM37.944 2.744V40.088C37.944 40.952 37.656 41.24 36.792 41.288C35.928 41.288 32.904 41.336 29.832 41.24C30.36 42.2 30.936 43.784 31.128 44.744C35.256 44.744 37.896 44.696 39.432 44.12C40.968 43.496 41.544 42.392 41.544 40.136V2.744H37.944ZM21 2.744V19.88C21 27.368 20.184 36.488 12.072 42.728C12.84 43.208 14.184 44.456 14.712 45.176C23.352 38.552 24.552 27.944 24.552 19.88V2.744H21ZM71.928 20.264C69.144 25.208 64.104 29.624 58.92 32.408C59.688 33.032 60.888 34.424 61.368 35.096C66.648 31.88 71.976 26.936 75.192 21.272L71.928 20.264ZM72.216 0.679998C70.488 3.32 67.416 6.92 65.064 9.176L67.608 10.664C70.008 8.504 72.984 5.24 75.384 2.312L72.216 0.679998ZM81.48 4.376C77.544 9.32 70.776 15.896 65.544 19.928L67.992 21.512C73.272 17.576 79.944 11.336 84.744 6.152L81.48 4.376ZM61.08 8.456C64.824 10.904 69.192 14.552 71.256 16.952L73.56 14.36C71.448 11.912 66.936 8.504 63.288 6.152L61.08 8.456ZM80.904 14.168C83.928 17.432 87.24 21.944 88.632 24.824L91.704 23.048C90.168 20.168 86.76 15.752 83.688 12.632L80.904 14.168ZM59.496 18.92L59.784 22.184C66.936 21.992 77.496 21.656 87.576 21.32L87.72 18.344C77.304 18.632 66.36 18.824 59.496 18.92ZM68.808 27.704L65.88 28.712C70.536 36.872 79.128 42.536 89.496 44.936C89.976 43.976 90.936 42.632 91.704 41.864C81.528 39.896 72.936 34.712 68.808 27.704ZM69.912 25.64L67.416 28.52H84.216V25.64H69.912ZM83.064 25.64V26.216C79.272 34.664 69.048 39.944 58.776 41.912C59.448 42.632 60.264 44.072 60.6 44.984C71.544 42.488 82.2 36.872 86.664 26.6L84.36 25.496L83.736 25.64H83.064ZM57.816 10.472C54.984 15.56 50.424 20.6 45.96 23.864C46.632 24.632 47.688 26.312 48.024 27.08C52.728 23.24 57.768 17.432 61.08 11.672L57.816 10.472ZM56.712 0.727998C54.6 4.136 50.28 8.216 46.536 10.76C47.16 11.432 48.072 12.68 48.552 13.4C52.632 10.52 57.144 6.008 59.928 1.976L56.712 0.727998ZM53.496 19.4V45.032H56.904V16.712L56.424 16.472L53.496 19.4ZM101.448 3.944V44.312H105.144V7.592H129.096V44.12H132.888V3.944H101.448ZM103.896 20.6V24.152H130.68V20.6H103.896ZM103.848 37.592V41.192H130.776V37.592H103.848Z" fill="black"/>
</svg>
