<svg width="41" height="42" viewBox="0 0 41 42" fill="none" xmlns="http://www.w3.org/2000/svg">
<path d="M0.608 8.76L0.896 12.36C2.672 12.408 4.736 12.456 6.512 12.456C12.368 12.504 18.656 11.448 23.36 10.152L23.264 6.6C17.744 8.424 11.696 9.048 6.512 9.048C4.448 9.048 2.384 8.952 0.608 8.76ZM17.648 0.935998L13.424 0.503998C13.28 3.864 12.224 8.088 11.168 11.112C9.2 16.776 4.736 25.32 0.464 30.312L4.16 32.232C8.144 26.856 12.56 18.12 14.864 11.208C16.016 7.8 17.024 3.288 17.648 0.935998ZM28.976 15.768H25.184C25.376 21.048 25.904 29.64 25.904 33.288C25.904 35.88 24.56 37.992 20.576 37.992C16.832 37.992 14.96 36.456 14.96 34.248C14.96 32.04 17.36 30.408 20.912 30.408C27.968 30.408 33.488 34.68 37.184 38.04L39.2 34.776C35.264 31.368 29.072 27.336 21.008 27.336C15.632 27.336 11.456 30.12 11.456 34.536C11.456 39.336 15.728 41.448 21.008 41.448C26.96 41.448 29.408 38.328 29.408 34.488C29.408 31.32 28.976 24.024 28.88 20.904C28.832 19.176 28.832 17.736 28.976 15.768ZM38.576 17.016L40.736 13.848C38.432 12.12 33.008 9 29.504 7.512L27.584 10.392C30.752 11.88 35.984 14.808 38.576 17.016Z" fill="black"/>
</svg>
