<svg width="36" height="40" viewBox="0 0 36 40" fill="none" xmlns="http://www.w3.org/2000/svg">
<path d="M6.136 1.008L6.232 4.992C7.192 4.896 8.536 4.752 9.592 4.656C11.992 4.512 20.968 4.176 23.944 4.032C19.816 8.16 7.192 18.768 0.136 24.24L3.064 27.216C9.112 21.504 13.48 17.28 21.736 17.28C27.928 17.28 31.864 20.448 31.864 25.056C31.864 32.16 23.128 35.664 9.832 34.032L10.888 37.968C26.824 39.216 35.848 34.272 35.848 25.104C35.848 18.576 30.376 14.112 22.456 14.112C20.536 14.112 18.184 14.4 15.592 15.36C19.576 12.144 25.288 7.392 28.84 4.416C29.368 4.08 30.328 3.36 30.952 3.072L28.696 0.239997C27.976 0.431997 26.824 0.623998 26.008 0.671997C22.984 0.863997 11.992 1.152 9.496 1.152C8.152 1.152 7 1.104 6.136 1.008Z" fill="black"/>
</svg>
