<svg width="87" height="46" viewBox="0 0 87 46" fill="none" xmlns="http://www.w3.org/2000/svg">
<path d="M22.76 4.184C27.128 10.28 35.576 17.768 43.016 22.232C43.688 21.176 44.552 19.976 45.464 19.16C37.928 15.128 29.384 7.736 24.344 0.583997H20.744C17.048 6.92 8.936 14.84 0.632 19.688C1.448 20.408 2.456 21.656 2.936 22.52C11.048 17.528 18.872 10.088 22.76 4.184ZM12.44 15.848V19.256H33.464V15.848H12.44ZM6.248 25.304V28.712H35.432V25.304H6.248ZM34.712 25.304V25.736C32.888 29.96 29.048 38.12 25.928 44.024L29.72 45.032C32.696 39.08 36.44 31.304 38.696 25.976L35.864 25.064L35.24 25.304H34.712ZM55.448 3.944V44.312H59.144V7.592H83.096V44.12H86.888V3.944H55.448ZM57.896 20.6V24.152H84.68V20.6H57.896ZM57.848 37.592V41.192H84.776V37.592H57.848Z" fill="black"/>
</svg>
