<svg width="134" height="45" viewBox="0 0 134 45" fill="none" xmlns="http://www.w3.org/2000/svg">
<path d="M3.568 16.136V19.688H40.48V16.136H3.568ZM0.496 39.176V42.728H43.552V39.176H0.496ZM19.984 0.871999V41.432H23.776V0.871999H19.984ZM64.912 8.504V11.048H74.752V8.504H64.912ZM64.096 2.504V5.096H73.024V14.6H64.048V17.24H76.192V2.504H64.096ZM78.832 8.504V11.048H88.96V8.504H78.832ZM78.16 2.504V5.096H87.328V14.6H78.112V17.24H90.496V2.504H78.16ZM68.368 27.56V30.104H89.68V27.56H68.368ZM68.368 33.8V36.344H89.68V33.8H68.368ZM68.512 40.328V43.112H92.08V40.328H68.512ZM69.472 16.568C67.888 20.552 64.576 25.304 61.072 28.28C61.696 28.856 62.704 30.008 63.232 30.68C67.12 27.368 70.672 22.232 72.832 17.576L69.472 16.568ZM69.76 21.032H69.232L66.448 23.96V44.6H69.76V23.864H90.88V21.032H69.76ZM79.504 16.856C79.024 18.488 77.968 20.984 77.152 22.664L79.84 23.48C80.8 21.992 82 19.784 83.056 17.672L79.504 16.856ZM77.2 23.192V41.384H80.416V23.192H77.2ZM51.376 3.704V6.968H58.816V32.36H51.376V35.576H62.08V3.704H51.376ZM51.568 17.768V20.984H60.496V17.768H51.568ZM49.696 3.704V39.56H52.912V3.704H49.696ZM102.448 3.944V44.312H106.144V7.592H130.096V44.12H133.888V3.944H102.448ZM104.896 20.6V24.152H131.68V20.6H104.896ZM104.848 37.592V41.192H131.776V37.592H104.848Z" fill="black"/>
</svg>
