<svg width="37" height="40" viewBox="0 0 37 40" fill="none" xmlns="http://www.w3.org/2000/svg">
<path d="M6.424 1.672L6.52 5.608C7.576 5.464 8.632 5.416 9.736 5.32C12.232 5.176 21.832 4.792 24.376 4.648C21.976 6.808 15.928 11.848 13.24 14.056C10.504 16.408 4.312 21.592 0.328 24.856L3.112 27.64C9.16 21.448 13.48 18.088 21.448 18.088C27.736 18.088 32.248 21.592 32.248 26.344C32.248 32.344 27.112 35.704 18.952 35.704C15.16 35.704 12.52 34.312 12.52 31.96C12.52 30.28 14.2 28.936 16.408 28.936C20.248 28.936 22.6 31.864 22.888 35.944L26.344 35.368C26.008 30.52 22.792 26.008 16.408 26.008C11.992 26.008 9.016 28.984 9.016 32.248C9.016 36.28 13 39.112 19.528 39.112C29.704 39.112 36.088 34.072 36.088 26.344C36.088 19.864 30.376 15.112 22.408 15.112C20.248 15.112 17.944 15.352 15.736 16.072C19.48 13 26.008 7.384 28.36 5.56C29.272 4.84 30.232 4.216 31.096 3.64L28.888 0.808C28.36 0.999997 27.688 1.096 26.248 1.24C23.704 1.48 12.328 1.816 9.784 1.816C8.824 1.816 7.48 1.768 6.424 1.672Z" fill="black"/>
</svg>
