<svg width="45" height="45" viewBox="0 0 45 45" fill="none" xmlns="http://www.w3.org/2000/svg">
<path d="M21.032 31.832V44.888H24.728V31.832H21.032ZM1.448 30.488L1.592 33.848C10.856 33.704 25.688 33.464 39.608 33.08L39.848 30.104C25.592 30.344 10.568 30.488 1.448 30.488ZM19.688 16.952C17.528 19.256 13.88 22.424 11.048 24.344L13.784 25.736C16.616 23.912 20.216 21.128 22.952 18.44L19.688 16.952ZM29.768 19.88C25.64 23.528 18.68 28.376 13.304 31.256L16.04 32.84C21.368 30.008 28.184 25.496 33.176 21.416L29.768 19.88ZM6.584 23.72C10.472 25.496 15.416 28.376 18.056 30.296L20.696 27.896C18.008 26.12 13.112 23.336 9.176 21.56L6.584 23.72ZM29.48 37.112C33.368 39.224 38.456 42.536 41.144 44.6L44.264 42.536C41.528 40.568 36.536 37.448 32.552 35.336L29.48 37.112ZM12.488 35.384C9.752 37.928 5.432 40.472 1.4 42.152C2.312 42.68 3.704 43.928 4.328 44.6C8.216 42.68 12.824 39.656 15.896 36.728L12.488 35.384ZM30.728 26.6C34.712 29.336 39.464 33.368 41.624 36.008L44.936 34.328C42.488 31.592 37.688 27.704 33.752 25.112L30.728 26.6ZM13.304 5.528V8.504H22.952V5.528H13.304ZM25.16 0.727998V13.688C25.16 17.528 26.312 18.488 31.064 18.488C32.024 18.488 38.456 18.488 39.56 18.488C43.208 18.488 44.312 17.192 44.744 12.152C43.736 11.912 42.296 11.384 41.528 10.856C41.336 14.696 41 15.272 39.224 15.272C37.784 15.272 32.408 15.272 31.4 15.272C29.096 15.272 28.712 15.032 28.712 13.688V0.727998H25.16ZM0.92 16.232L1.304 19.496C7.064 18.68 15.368 17.48 23.288 16.28L23.192 13.304C14.888 14.456 6.392 15.608 0.92 16.232ZM40.232 3.224C37.064 4.904 31.352 6.68 26.408 7.88C26.84 8.6 27.32 9.8 27.512 10.52C32.696 9.368 38.792 7.688 43.016 5.768L40.232 3.224ZM11.912 0.727998V16.808L15.272 16.52V0.727998H11.912ZM4.28 4.232V17.72L7.448 17.432V4.232H4.28Z" fill="black"/>
</svg>
