<svg width="32" height="40" viewBox="0 0 32 40" fill="none" xmlns="http://www.w3.org/2000/svg">
<path d="M30.024 9.392L27.96 5.936C26.952 6.752 25.896 7.376 24.504 8.192C21.384 9.968 14.664 13.184 9.768 16.448C4.104 20.192 0.6 24.272 0.6 29.456C0.6 36.656 7.128 39.344 16.152 39.344C22.152 39.344 27.72 38.816 31.32 38.192L31.368 33.872C27.624 34.832 21.192 35.504 16.008 35.504C8.424 35.504 4.584 33.008 4.584 29.024C4.584 25.424 7.272 22.256 11.736 19.328C16.44 16.256 23.112 13.088 26.328 11.408C27.768 10.688 28.968 10.016 30.024 9.392ZM5.736 0.655997L1.944 2.288C4.536 8.24 7.416 14.72 9.864 18.656L13.128 16.688C10.92 12.8 7.944 6.8 5.736 0.655997Z" fill="black"/>
</svg>
