<svg width="85" height="45" viewBox="0 0 85 45" fill="none" xmlns="http://www.w3.org/2000/svg">
<path d="M27.816 18.536V21.848H42.216V18.536H27.816ZM27.816 29.192V32.504H42.648V29.192H27.816ZM25.416 9.464V44.888H28.968V9.464H25.416ZM22.488 0.631999C20.904 7.208 18.264 13.736 14.904 17.912C15.72 18.536 17.112 19.928 17.64 20.6C21.192 15.896 24.168 8.696 26.088 1.448L22.488 0.631999ZM21.24 8.408L19.896 11.768H43.272V8.408H21.24ZM2.424 4.424V7.736H11.304V32.552H2.424V35.816H14.76V4.424H2.424ZM2.52 18.248V21.512H12.984V18.248H2.52ZM0.6 4.424V39.56H4.056V4.424H0.6ZM53.448 3.944V44.312H57.144V7.592H81.096V44.12H84.888V3.944H53.448ZM55.896 20.6V24.152H82.68V20.6H55.896ZM55.848 37.592V41.192H82.776V37.592H55.848Z" fill="black"/>
</svg>
