<svg width="93" height="45" viewBox="0 0 93 45" fill="none" xmlns="http://www.w3.org/2000/svg">
<path d="M22.808 4.184C27.224 10.136 35.576 16.712 43.016 20.552C43.64 19.496 44.504 18.248 45.368 17.384C37.832 14.024 29.528 7.592 24.44 0.631999H20.744C17.048 6.68 9.08 13.784 0.776 17.96C1.544 18.728 2.552 19.976 2.984 20.84C11.096 16.52 18.824 9.896 22.808 4.184ZM10.904 15.32V18.584H35V15.32H10.904ZM4.712 24.968V28.184H41.24V24.968H4.712ZM2.504 40.136V43.304H43.544V40.136H2.504ZM20.888 16.568V41.816H24.68V16.568H20.888ZM8.696 30.632C10.616 33.32 12.488 37.064 13.112 39.464L16.232 38.12C15.56 35.72 13.592 32.072 11.624 29.432L8.696 30.632ZM33.8 29.336C32.6 32.072 30.344 35.912 28.616 38.264L31.352 39.464C33.128 37.208 35.384 33.752 37.208 30.728L33.8 29.336ZM56.504 24.68V27.992H86.648V24.68H56.504ZM69.56 13.928V26.36H73.16V13.928H69.56ZM56.36 12.632V15.896H85.448V30.104H89.096V12.632H56.36ZM54.536 12.632V37.208C54.536 42.968 56.888 44.36 64.664 44.36C66.44 44.36 81.512 44.36 83.432 44.36C90.584 44.36 92.072 42.248 92.888 35.144C91.784 34.952 90.248 34.424 89.336 33.8C88.76 39.704 87.992 40.952 83.336 40.952C80.12 40.952 66.968 40.952 64.424 40.952C59.144 40.952 58.136 40.28 58.136 37.208V12.632H54.536ZM62.552 3.896L60.92 7.112H77.624V3.896H62.552ZM62.648 0.535997C60.056 5.384 55.208 11.336 48.68 15.752C49.544 16.328 50.744 17.528 51.32 18.392C58.232 13.352 63.224 7.016 66.632 1.304L62.648 0.535997ZM76.04 3.896V4.616C74.936 7.304 72.632 11.096 70.568 13.4C71.24 13.928 72.344 14.984 72.872 15.704C75.32 13.112 78.152 8.984 80.024 5.288L77.576 3.704L76.856 3.896H76.04Z" fill="black"/>
</svg>
