<svg width="149" height="34" viewBox="0 0 149 34" fill="none" xmlns="http://www.w3.org/2000/svg">
<path d="M12.4 0.0799985H8.88C9 0.719997 9.08 2.12 9.08 2.88C9.08 4.52 8.92 11.04 8.92 15.64C8.92 20.08 9.12 25.64 9.12 27.96C9.12 29.28 8.6 29.92 7.68 29.92C6.12 29.92 3.32 28.32 3.32 26.52C3.32 24.48 6.4 21.8 10.32 20.28C13.72 18.92 17 18.16 20.6 18.16C24.36 18.16 27.44 19.96 27.44 23.36C27.44 27.08 24.24 28.96 20.76 29.64C19.24 29.96 17.56 29.92 16.04 29.92L17.16 33.12C18.56 33.04 20.36 32.96 22.12 32.56C27.64 31.28 30.68 28.2 30.68 23.36C30.68 18.56 26.48 15.4 20.6 15.4C17.44 15.4 13.44 16.12 9.88 17.52C4.92 19.4 0.16 23.12 0.16 26.64C0.16 30.24 5.36 33.28 8.48 33.28C10.68 33.28 12.04 32.08 12.04 28.4C12.04 25.88 11.84 19.64 11.84 15.48C11.84 11.32 12.04 5.2 12.16 2.84C12.2 1.88 12.28 0.799999 12.4 0.0799985ZM24.84 4.52L23.36 6.92C25.92 8.28 30.4 11.04 32.36 12.88L33.96 10.32C32.04 8.72 27.68 6 24.84 4.52ZM0.84 7.24L0.92 10.32C2.24 10.44 3.76 10.52 6 10.52C9.6 10.52 16.16 9.64 20.28 8.64L20.2 5.52C16.24 6.72 9.88 7.56 5.92 7.56C4.48 7.56 3.04 7.52 0.84 7.24ZM51.92 8.36L51.96 11.4C54.28 11.56 56.36 11.64 58.68 11.64C63.36 11.64 68.24 11.32 72.48 10.6V7.52C68.44 8.36 63.52 8.72 58.72 8.72C56.36 8.72 54.2 8.6 51.92 8.36ZM65.92 1.2H62.32C62.44 1.92 62.48 2.96 62.48 3.68C62.48 5.08 62.52 7.6 62.52 10.36C62.52 15.64 63.04 23.12 63.04 26C63.04 28.68 62.08 30.36 58.72 30.36C55.8 30.36 53.84 29.28 53.84 27.2C53.84 25.28 55.92 23.96 58.92 23.96C64 23.96 68.04 26.68 72.24 30.6L73.96 27.96C70.6 24.92 65.92 21.52 59.2 21.52C53.92 21.52 50.96 24.16 50.96 27.52C50.96 31.12 53.88 33.28 59.24 33.28C64.64 33.28 66.16 30.08 66.16 26.8C66.16 22.68 65.56 16.44 65.56 10.28C65.56 7.92 65.6 5.08 65.68 3.6C65.72 2.84 65.8 2 65.92 1.2ZM46.2 1.48L42.68 1.16C42.64 2.04 42.56 3.08 42.4 4.04C41.92 7.32 40.56 14.96 40.56 20.84C40.56 26.24 41.32 30.64 42.08 33.52L44.92 33.28C44.88 32.88 44.84 32.28 44.8 31.88C44.76 31.44 44.84 30.64 44.96 30.08C45.36 28.12 46.84 24.04 47.84 21.24L46.2 19.96C45.52 21.6 44.52 24.04 43.88 25.88C43.6 23.92 43.48 22.24 43.48 20.28C43.48 15.8 44.68 7.88 45.48 4.16C45.64 3.44 45.96 2.12 46.2 1.48ZM97.64 0.599999H93.84C94 1.36 94.12 3.12 94.16 4.6C94.16 6.32 94.2 9.6 94.2 11.92C94.2 16 94.68 23.76 94.68 26.72C94.68 29.48 93.24 30.88 90.32 30.88C86.44 30.88 84.2 29.64 84.2 27.44C84.2 25.2 86.56 23.8 90.72 23.8C97.72 23.8 104.28 27.72 108.28 31.72L110.2 28.72C106.12 25 99 21 91.08 21C84.16 21 81.04 23.92 81.04 27.56C81.04 32.12 85.08 33.84 90.64 33.84C95.96 33.84 97.96 31.04 97.96 27.8C97.96 24.28 97.32 16.28 97.32 11.92C97.32 9.16 97.32 6.4 97.32 4.6C97.36 3.4 97.48 1.48 97.64 0.599999ZM95.56 8.68V11.64C98.44 11.64 104.96 11.36 109.28 10.96L109.16 7.96C104.84 8.48 98.32 8.68 95.56 8.68ZM144.76 18.72C144.76 25.88 137.92 29.68 128.2 30.92L130.04 33.96C140.4 32.36 148.16 27.52 148.16 18.84C148.16 13.12 143.96 9.96 138.28 9.96C133.64 9.96 129.12 11.24 126.32 11.88C125.08 12.12 123.76 12.4 122.64 12.48L123.64 16.16C124.6 15.76 125.8 15.32 127.04 14.96C129.36 14.28 133.32 12.96 137.92 12.96C142.04 12.96 144.76 15.32 144.76 18.72ZM127.96 0.679998L127.48 3.72C132 4.52 140.04 5.32 144.48 5.64L144.96 2.56C141.08 2.52 132.4 1.68 127.96 0.679998Z" fill="black"/>
</svg>
