<svg width="33" height="42" viewBox="0 0 33 42" fill="none" xmlns="http://www.w3.org/2000/svg">
<path d="M8.032 0.367998L7.072 4.064C10.768 5.024 21.136 7.136 25.744 7.76L26.656 4.112C22.384 3.68 12.16 1.712 8.032 0.367998ZM6.976 9.152L2.944 8.624C2.656 13.616 1.456 23.696 0.496 28.064L4.096 28.928C4.384 28.16 4.816 27.392 5.536 26.576C8.896 22.496 14.08 20.144 20.368 20.144C25.264 20.144 28.864 22.88 28.864 26.672C28.864 33.248 21.472 37.616 6.304 35.792L7.456 39.68C25.264 41.168 32.896 35.36 32.896 26.816C32.896 21.152 28 16.736 20.656 16.736C14.896 16.736 9.616 18.608 5.008 22.64C5.488 19.52 6.352 12.416 6.976 9.152Z" fill="black"/>
</svg>
