<svg width="43" height="40" viewBox="0 0 43 40" fill="none" xmlns="http://www.w3.org/2000/svg">
<path d="M23.256 2.384L18.984 0.655997C18.408 2.096 17.784 3.248 17.256 4.4C14.616 9.008 4.104 28.688 0.6 38.384L4.728 39.824C5.4 37.472 7.416 31.76 8.904 28.928C10.728 25.136 14.376 21.2 18.216 21.2C20.376 21.2 21.624 22.496 21.72 24.56C21.864 27.2 21.816 30.896 21.96 33.728C22.104 36.56 23.784 39.776 28.92 39.776C35.88 39.776 39.912 34.4 42.456 26.672L39.24 24.08C38.04 29.216 34.872 35.84 29.496 35.84C27.432 35.84 25.8 34.784 25.656 32.384C25.464 30.032 25.56 26.384 25.464 23.552C25.32 19.76 23.016 17.696 19.8 17.696C17.496 17.696 15 18.608 12.696 20.672C15.144 16.016 19.56 8.048 21.72 4.736C22.248 3.824 22.824 2.96 23.256 2.384Z" fill="black"/>
</svg>
