<svg width="42" height="41" viewBox="0 0 42 41" fill="none" xmlns="http://www.w3.org/2000/svg">
<path d="M15.68 0.695998H11.456C11.6 1.464 11.696 3.144 11.696 4.056C11.696 6.024 11.504 13.848 11.504 19.368C11.504 24.696 11.744 31.368 11.744 34.152C11.744 35.736 11.12 36.504 10.016 36.504C8.144 36.504 4.784 34.584 4.784 32.424C4.784 29.976 8.48 26.76 13.184 24.936C17.264 23.304 21.2 22.392 25.52 22.392C30.032 22.392 33.728 24.552 33.728 28.632C33.728 33.096 29.888 35.352 25.712 36.168C23.888 36.552 21.872 36.504 20.048 36.504L21.392 40.344C23.072 40.248 25.232 40.152 27.344 39.672C33.968 38.136 37.616 34.44 37.616 28.632C37.616 22.872 32.576 19.08 25.52 19.08C21.728 19.08 16.928 19.944 12.656 21.624C6.704 23.88 0.992 28.344 0.992 32.568C0.992 36.888 7.232 40.536 10.976 40.536C13.616 40.536 15.248 39.096 15.248 34.68C15.248 31.656 15.008 24.168 15.008 19.176C15.008 14.184 15.248 6.84 15.392 4.008C15.44 2.856 15.536 1.56 15.68 0.695998ZM30.608 6.024L28.832 8.904C31.904 10.536 37.28 13.848 39.632 16.056L41.552 12.984C39.248 11.064 34.016 7.8 30.608 6.024ZM1.808 9.288L1.904 12.984C3.488 13.128 5.312 13.224 8 13.224C12.32 13.224 20.192 12.168 25.136 10.968L25.04 7.224C20.288 8.664 12.656 9.672 7.904 9.672C6.176 9.672 4.448 9.624 1.808 9.288Z" fill="black"/>
</svg>
