<svg width="39" height="39" viewBox="0 0 39 39" fill="none" xmlns="http://www.w3.org/2000/svg">
<path d="M16.84 4.6L16.888 8.488C22.12 9.064 31.432 9.064 36.568 8.488V4.6C31.816 5.32 22.072 5.512 16.84 4.6ZM18.712 24.184L15.256 23.848C14.728 26.152 14.488 27.88 14.488 29.464C14.488 33.976 18.088 36.664 26.104 36.664C31.096 36.664 35.128 36.28 38.104 35.656L38.008 31.624C34.168 32.536 30.424 32.92 26.152 32.92C19.576 32.92 18.04 30.76 18.04 28.552C18.04 27.256 18.28 25.912 18.712 24.184ZM7.72 0.903998L3.448 0.567997C3.4 1.624 3.256 2.824 3.112 3.928C2.536 7.912 0.952 16.12 0.952 23.176C0.952 29.704 1.768 35.224 2.728 38.632L6.136 38.392C6.088 37.864 6.04 37.192 5.992 36.712C5.992 36.136 6.088 35.224 6.232 34.552C6.664 32.248 8.44 27.208 9.64 23.8L7.624 22.216C6.808 24.184 5.704 27.064 4.888 29.224C4.6 26.872 4.456 24.856 4.456 22.552C4.456 17.128 5.944 8.584 6.856 4.12C7.048 3.256 7.432 1.72 7.72 0.903998Z" fill="black"/>
</svg>
