<svg width="44" height="40" viewBox="0 0 44 40" fill="none" xmlns="http://www.w3.org/2000/svg">
<path d="M17.976 0.559999L13.56 0.127998C13.56 3.824 12.888 8.144 12.024 11.936C10.728 17.84 6.888 30.656 1.416 37.952L5.304 39.536C10.728 30.752 14.184 18.8 15.816 12.08C16.44 9.104 17.112 5.168 17.4 3.44C17.592 2.48 17.784 1.472 17.976 0.559999ZM34.536 5.696L31.032 7.28C34.392 11.216 38.136 19.712 39.576 24.656L43.272 22.88C41.688 18.416 37.512 9.584 34.536 5.696ZM0.696 11.12L1.128 15.248C2.328 15.056 4.344 14.816 5.448 14.672C8.376 14.384 17.352 13.328 20.568 13.328C23.64 13.328 25.656 14.144 25.656 18.512C25.656 23.696 24.936 29.984 23.4 33.2C22.392 35.312 20.952 35.696 19.176 35.696C17.832 35.696 15.336 35.312 13.32 34.688L13.944 38.72C15.48 39.056 17.736 39.392 19.608 39.392C22.68 39.392 25.08 38.624 26.616 35.408C28.584 31.424 29.352 23.792 29.352 18.08C29.352 11.552 25.848 9.92 21.576 9.92C18.312 9.92 8.568 11.024 5.016 11.12C3.48 11.168 2.232 11.168 0.696 11.12Z" fill="black"/>
</svg>
