<svg width="39" height="40" viewBox="0 0 39 40" fill="none" xmlns="http://www.w3.org/2000/svg">
<path d="M8.528 1.192L8.72 5.128C9.776 5.032 11.168 4.888 12.416 4.792C14.48 4.6 22.88 4.216 25.04 4.072C21.968 6.76 14.384 13.432 9.152 17.08C6.704 17.368 3.44 17.752 0.848 18.04L1.184 21.64C6.944 20.68 13.376 19.912 18.512 19.48C16.016 20.968 12.896 24.472 12.896 28.552C12.896 35.944 19.28 39.592 31.04 39.112L31.808 35.176C30.08 35.32 27.776 35.416 24.944 35.08C20.528 34.456 16.64 32.824 16.64 27.976C16.64 23.464 21.248 19.528 25.904 18.856C28.784 18.424 33.392 18.376 38.096 18.616L38.048 15.064C31.184 15.064 22.544 15.688 15.248 16.504C19.088 13.432 26 7.624 29.6 4.696C30.272 4.12 31.52 3.304 32.144 2.872L29.744 0.136C29.168 0.327997 28.256 0.519998 27.104 0.615999C24.368 0.903998 14.48 1.336 12.368 1.336C10.88 1.336 9.728 1.288 8.528 1.192Z" fill="black"/>
</svg>
