<svg width="45" height="41" viewBox="0 0 45 41" fill="none" xmlns="http://www.w3.org/2000/svg">
<path d="M44.752 35.352L44.128 31.272C41.68 33.816 39.136 35.208 36.88 35.208C35.152 35.208 34.336 33.912 34.336 32.28C34.336 27.432 36.16 19.176 36.16 14.376C36.16 10.488 33.952 7.944 29.44 7.944C23.536 7.944 15.568 14.856 12.592 18.12L12.544 22.872C17.056 17.4 24.016 11.448 28.528 11.448C30.976 11.448 32.368 12.648 32.368 15.432C32.368 20.088 30.592 27.96 30.592 33.336C30.592 37.272 32.704 39.384 35.92 39.384C39.184 39.384 42.16 37.944 44.752 35.352ZM12.496 12.408L12.112 13.704L11.92 16.2C10.048 19.368 3.568 28.152 0.592 31.896L2.992 35.16C6.016 30.984 10.48 24.504 12.688 21.096L14.128 14.52C14.944 13.176 16.24 11.112 17.056 9.864L15.664 8.232C13.456 8.952 7.456 9.672 4.912 9.816C3.712 9.912 2.8 9.912 1.744 9.864L2.176 13.848C5.728 13.272 10.912 12.648 12.496 12.408ZM12.016 4.488C12.016 6.264 10.864 21.48 10.768 25.704C10.72 30.984 10.672 33.384 10.672 38.04C10.672 38.808 10.624 39.96 10.528 40.872H14.656C14.608 39.96 14.464 38.76 14.416 37.944C14.224 33.672 14.224 30.744 14.224 26.376C14.224 17.928 15.664 4.2 16.336 1.08L11.824 0.935998C12.064 2.136 12.016 3.384 12.016 4.488Z" fill="black"/>
</svg>
