<svg width="156" height="30" viewBox="0 0 156 30" fill="none" xmlns="http://www.w3.org/2000/svg">
<path d="M13.2004 3.096V5.368H28.4964V3.096H13.2004ZM27.6004 3.096V3.672C27.2804 19.48 26.8644 25.208 25.8724 26.36C25.5204 26.808 25.2004 26.936 24.6244 26.904C23.8884 26.904 22.1924 26.904 20.3044 26.744C20.7204 27.448 21.0084 28.504 21.0724 29.208C22.8004 29.304 24.5604 29.368 25.6484 29.24C26.7044 29.08 27.4084 28.792 28.1124 27.8C29.3284 26.2 29.6804 20.76 30.0324 4.44C30.0324 4.088 30.0324 3.096 30.0324 3.096H27.6004ZM18.7044 4.056C18.5124 12.792 18.2884 22.84 10.8324 27.8C11.4724 28.216 12.2724 29.016 12.7204 29.624C20.4324 24.12 20.9124 13.528 21.1364 4.056H18.7044ZM6.38438 15.576V29.592H8.72038V12.76L6.38438 15.576ZM1.71238 6.04V8.216H11.6324V6.04H1.71238ZM6.38438 0.151999V7.224H8.72038V0.151999H6.38438ZM8.65638 13.912L7.34438 15.032C8.52838 16.184 11.3444 19.544 12.3364 20.984L13.8084 19.192C13.0084 18.296 9.61638 14.744 8.65638 13.912ZM10.9604 6.04V6.552C9.10438 11.48 4.78438 16.696 0.816375 19.512C1.20038 19.928 1.87238 21.016 2.12838 21.624C6.28838 18.424 10.9284 12.728 13.2324 6.808L11.8564 5.912L11.4084 6.04H10.9604ZM12.6564 12.024C12.0164 13.176 10.7364 14.936 9.84038 15.96L11.0244 16.952C11.9844 16.024 13.1364 14.584 14.2564 13.304L12.6564 12.024ZM53.3924 2.232L50.6084 1.976C50.6404 2.712 50.5444 3.768 50.4164 4.408C49.6164 9.08 47.4724 14.936 45.3604 18.2C43.7284 20.792 41.4884 23.512 39.4084 23.512C37.9684 23.512 37.0404 22.232 37.0404 20.12C37.0404 17.24 38.7684 13.816 41.4884 11.864C43.9844 10.008 46.7684 8.952 49.8724 8.952C55.0244 8.952 58.4164 12.408 58.4164 17.112C58.4164 22.072 54.7364 25.56 48.0484 26.168L49.5204 28.44C56.4004 27.48 60.9764 23.608 60.9764 17.208C60.9764 10.968 56.4324 6.744 50.1604 6.744C46.8644 6.744 43.7284 7.576 40.5604 9.72C37.1684 11.992 34.7044 16.248 34.7044 20.28C34.7044 24.024 36.7524 26.04 39.1844 26.04C42.0964 26.04 44.4324 23.64 46.8644 20.248C49.4244 16.728 51.6644 10.04 52.8164 4.76C52.9764 4.152 53.1684 3.032 53.3924 2.232ZM40.2724 3.704L37.6164 4.536C38.0324 5.368 38.3844 6.424 38.7044 7.448C39.9204 11.448 41.7764 16.344 43.3444 18.84C44.5604 20.92 45.7444 22.488 47.0244 23.896L49.0404 22.264C47.5044 20.792 46.0004 18.68 44.9124 16.824C43.5684 14.584 41.7764 9.656 40.9444 6.52C40.6884 5.624 40.4324 4.568 40.2724 3.704ZM82.2884 1.624H79.5684C79.6644 2.04 79.6964 3 79.6964 3.544C79.6964 5.784 79.6964 9.144 79.6964 12.024C79.6964 14.84 80.0164 20.984 80.0164 23.448C80.0164 25.688 78.4484 26.232 76.5924 26.232C73.4244 26.232 72.1764 25.144 72.1764 23.64C72.1764 22.168 73.8084 20.984 76.8804 20.984C82.5764 20.984 87.3124 24.184 90.1924 26.84L91.6644 24.568C89.2004 22.552 83.9204 18.904 77.1684 18.904C72.5604 18.904 69.7764 20.856 69.7764 23.768C69.7764 26.872 72.3044 28.504 76.9124 28.504C81.0724 28.504 82.5444 26.232 82.5444 23.992C82.5444 21.848 82.0644 16.248 82.0644 12.024C82.0644 9.336 82.0644 5.048 82.1284 3.768C82.1604 2.808 82.2244 2.168 82.2884 1.624ZM70.0644 5.08L70.0964 7.448C72.1124 7.704 76.0484 7.992 78.2564 7.992C82.5444 7.992 87.1204 7.576 90.7364 7.16V4.824C86.5764 5.496 82.2884 5.784 78.2244 5.784C76.1124 5.784 72.1124 5.464 70.0644 5.08ZM69.9044 11.896L69.9364 14.296C72.2084 14.552 75.7284 14.712 77.9364 14.712C82.7364 14.712 86.6404 14.488 90.9924 13.944V11.544C86.8324 12.152 82.5764 12.472 77.9364 12.472C75.8244 12.472 72.1764 12.248 69.9044 11.896ZM106.864 2.072H103.6C103.792 3 103.888 4.12 103.888 5.304C103.888 8.664 103.568 16.76 103.568 21.496C103.568 26.744 106.736 28.632 111.344 28.632C118.352 28.632 122.512 24.632 124.688 21.592L122.896 19.416C120.592 22.744 117.264 26.008 111.408 26.008C108.368 26.008 106.16 24.792 106.16 21.272C106.16 16.504 106.416 8.92 106.544 5.304C106.608 4.248 106.704 3.128 106.864 2.072ZM129.704 5.752L129.992 8.568C133.48 7.832 141.608 7.032 145.064 6.68C142.12 8.408 139.08 12.472 139.08 17.464C139.08 24.632 145.8 27.768 151.752 27.992L152.648 25.368C147.464 25.144 141.608 23.16 141.608 16.92C141.608 13.144 144.392 8.248 148.968 6.776C150.6 6.328 153.384 6.264 155.24 6.296L155.208 3.736C153.064 3.8 150.088 3.992 146.6 4.28C140.68 4.792 134.664 5.368 132.584 5.592C131.944 5.656 130.92 5.72 129.704 5.752Z" fill="black"/>
</svg>
