<svg width="92" height="45" viewBox="0 0 92 45" fill="none" xmlns="http://www.w3.org/2000/svg">
<path d="M0.592 12.776V16.088H43.504V12.776H0.592ZM4.048 4.952V8.168H40.288V4.952H4.048ZM12.592 0.679998V14.408H16.192V0.679998H12.592ZM27.904 0.679998V14.408H31.6V0.679998H27.904ZM20.08 14.6V34.712H23.776V14.6H20.08ZM9.28 29.048H34.912V33.368H9.28V29.048ZM9.28 22.28H34.912V26.504H9.28V22.28ZM5.824 19.592V36.056H38.512V19.592H5.824ZM26.416 39.128C31.792 41 37.264 43.256 40.528 44.888L43.216 42.44C39.664 40.856 33.856 38.6 28.528 36.824L26.416 39.128ZM14.896 36.824C11.824 38.84 5.68 41.144 0.784 42.392C1.6 43.064 2.704 44.264 3.28 44.984C8.128 43.688 14.272 41.336 18.112 38.936L14.896 36.824ZM55.504 24.68V27.992H85.648V24.68H55.504ZM68.56 13.928V26.36H72.16V13.928H68.56ZM55.36 12.632V15.896H84.448V30.104H88.096V12.632H55.36ZM53.536 12.632V37.208C53.536 42.968 55.888 44.36 63.664 44.36C65.44 44.36 80.512 44.36 82.432 44.36C89.584 44.36 91.072 42.248 91.888 35.144C90.784 34.952 89.248 34.424 88.336 33.8C87.76 39.704 86.992 40.952 82.336 40.952C79.12 40.952 65.968 40.952 63.424 40.952C58.144 40.952 57.136 40.28 57.136 37.208V12.632H53.536ZM61.552 3.896L59.92 7.112H76.624V3.896H61.552ZM61.648 0.535997C59.056 5.384 54.208 11.336 47.68 15.752C48.544 16.328 49.744 17.528 50.32 18.392C57.232 13.352 62.224 7.016 65.632 1.304L61.648 0.535997ZM75.04 3.896V4.616C73.936 7.304 71.632 11.096 69.568 13.4C70.24 13.928 71.344 14.984 71.872 15.704C74.32 13.112 77.152 8.984 79.024 5.288L76.576 3.704L75.856 3.896H75.04Z" fill="black"/>
</svg>
