<svg width="41" height="40" viewBox="0 0 41 40" fill="none" xmlns="http://www.w3.org/2000/svg">
<path d="M14.104 9.632L14.152 13.28C16.936 13.472 19.432 13.568 22.216 13.568C27.832 13.568 33.688 13.184 38.776 12.32V8.624C33.928 9.632 28.024 10.064 22.264 10.064C19.432 10.064 16.84 9.92 14.104 9.632ZM30.904 1.04H26.584C26.728 1.904 26.776 3.152 26.776 4.016C26.776 5.696 26.824 8.72 26.824 12.032C26.824 18.368 27.448 27.344 27.448 30.8C27.448 34.016 26.296 36.032 22.264 36.032C18.76 36.032 16.408 34.736 16.408 32.24C16.408 29.936 18.904 28.352 22.504 28.352C28.6 28.352 33.448 31.616 38.488 36.32L40.552 33.152C36.52 29.504 30.904 25.424 22.84 25.424C16.504 25.424 12.952 28.592 12.952 32.624C12.952 36.944 16.456 39.536 22.888 39.536C29.368 39.536 31.192 35.696 31.192 31.76C31.192 26.816 30.472 19.328 30.472 11.936C30.472 9.104 30.52 5.696 30.616 3.92C30.664 3.008 30.76 2 30.904 1.04ZM7.24 1.376L3.016 0.991999C2.968 2.048 2.872 3.296 2.68 4.448C2.104 8.384 0.472 17.552 0.472 24.608C0.472 31.088 1.384 36.368 2.296 39.824L5.704 39.536C5.656 39.056 5.608 38.336 5.56 37.856C5.512 37.328 5.608 36.368 5.752 35.696C6.232 33.344 8.008 28.448 9.208 25.088L7.24 23.552C6.424 25.52 5.224 28.448 4.456 30.656C4.12 28.304 3.976 26.288 3.976 23.936C3.976 18.56 5.416 9.056 6.376 4.592C6.568 3.728 6.952 2.144 7.24 1.376Z" fill="black"/>
</svg>
