<svg width="66" height="45" viewBox="0 0 66 45" fill="none" xmlns="http://www.w3.org/2000/svg">
<path d="M13.8864 6.09091V41H9.65909V10.5227H9.45455L0.931818 16.1818V11.8864L9.65909 6.09091H13.8864ZM42.4885 11.816V37.496H45.9445V11.816H42.4885ZM32.0725 18.968H56.5525V22.424H32.0725V18.968ZM32.0725 13.016H56.5525V16.472H32.0725V13.016ZM28.6165 10.424V25.016H60.1525V10.424H28.6165ZM25.5925 27.944V44.84H29.0005V31.016H60.9205V27.944H25.5925ZM59.9605 27.944V41.096C59.9605 41.672 59.7685 41.816 59.1445 41.816C58.6165 41.864 56.7445 41.864 54.5365 41.816C54.9685 42.68 55.4005 43.88 55.5445 44.792C58.6645 44.792 60.6805 44.744 61.9285 44.264C63.1285 43.736 63.4165 42.872 63.4165 41.144V27.944H59.9605ZM32.0245 36.632L32.2645 39.8C37.9765 39.512 46.2805 39.08 54.2965 38.6L54.3445 35.672C46.0405 36.104 37.5445 36.44 32.0245 36.632ZM49.7845 32.696C51.8965 35.384 53.9605 39.032 54.6805 41.432L57.5125 40.472C56.7925 38.024 54.6325 34.424 52.5205 31.832L49.7845 32.696ZM33.9445 0.679998V9.752H37.4485V0.679998H33.9445ZM50.8405 0.679998V9.752H54.3445V0.679998H50.8405ZM23.5765 3.608V6.728H65.0485V3.608H23.5765Z" fill="black"/>
</svg>
