<svg width="46" height="45" viewBox="0 0 46 45" fill="none" xmlns="http://www.w3.org/2000/svg">
<path d="M41.624 22.424C40.232 24.584 37.736 27.56 35.96 29.384L38.168 31.064C40.04 29.288 42.44 26.648 44.36 24.296L41.624 22.424ZM19.832 24.392C21.752 26.456 23.768 29.24 24.68 31.16L27.368 29.288C26.456 27.416 24.344 24.728 22.376 22.76L19.832 24.392ZM20.792 2.696V5.72H36.824V18.536H40.328V2.696H20.792ZM21.848 9.896V12.824H38.744V9.896H21.848ZM18.2 17.096V20.216H44.648V17.096H18.2ZM29.624 18.344V41.048C29.624 41.576 29.432 41.72 28.904 41.72C28.328 41.768 26.552 41.768 24.584 41.672C25.016 42.632 25.448 43.976 25.592 44.888C28.376 44.888 30.248 44.84 31.448 44.264C32.648 43.784 32.936 42.824 32.936 41.048V18.344H29.624ZM16.52 38.936L18.296 42.008C21.32 39.992 25.064 37.448 28.52 35.048L27.368 32.12C23.384 34.76 19.256 37.4 16.52 38.936ZM32.744 19.832L30.776 22.28C31.976 28.712 35.096 37.88 43.208 42.344C43.688 41.432 44.744 40.088 45.416 39.416C37.16 35.528 33.944 26.888 32.744 19.832ZM8.408 0.727998C7.16 3.896 4.904 8.6 3.176 11.384L5.624 12.44C7.496 9.8 9.752 5.48 11.576 1.928L8.408 0.727998ZM13.784 6.2C11.144 11.24 6.632 18.392 3.032 22.664L5.24 23.912C8.84 19.736 13.496 12.92 16.808 7.592L13.784 6.2ZM0.728 10.712C3.272 13.16 6.152 16.568 7.352 18.872L9.416 16.184C8.168 13.976 5.24 10.76 2.648 8.408L0.728 10.712ZM11.912 17.192C13.832 20.36 15.704 24.632 16.328 27.32L19.16 26.024C18.488 23.384 16.52 19.256 14.504 16.088L11.912 17.192ZM0.344 21.944L0.728 25.16C5.096 24.872 10.856 24.536 16.568 24.152V21.128C10.52 21.464 4.52 21.752 0.344 21.944ZM13.16 28.808C14.312 31.592 15.32 35.24 15.608 37.592L18.392 36.728C18.056 34.376 17.048 30.776 15.8 27.992L13.16 28.808ZM3.224 28.136C2.696 32.312 1.784 36.632 0.248 39.56C0.968 39.896 2.408 40.52 2.984 40.904C4.52 37.832 5.624 33.224 6.248 28.664L3.224 28.136ZM8.312 23.336V44.84H11.48V23.336H8.312Z" fill="black"/>
</svg>
