<svg width="133" height="25" viewBox="0 0 133 25" fill="none" xmlns="http://www.w3.org/2000/svg">
<path d="M11.144 3.176C11.452 4.044 11.844 5.332 12.46 6.928C13.384 9.476 14.924 12.248 16.1 14.04C15.092 13.928 13.02 13.76 11.452 13.62L11.284 15.468C13.3 15.608 16.716 15.916 18.06 16.252L19.18 14.656C18.76 14.208 18.34 13.732 17.976 13.172C16.772 11.548 15.344 8.944 14.476 6.536C13.832 4.716 13.104 2.308 12.852 0.683999L10.444 0.963998C10.724 1.72 10.976 2.56 11.144 3.176ZM0.896 5.36L0.952 7.572C5.908 7.992 10.36 7.964 13.916 7.544C15.96 7.292 18.62 6.844 20.608 6.284L20.356 4.072C18.172 4.828 15.4 5.332 13.188 5.584C9.996 5.92 5.572 5.892 0.896 5.36ZM5.236 14.264L3.052 13.76C2.24 15.412 1.68 16.868 1.68 18.436C1.68 22.244 5.04 24.148 10.36 24.176C13.496 24.204 15.848 23.896 17.612 23.588L17.696 21.348C15.764 21.768 13.328 22.048 10.5 22.048C6.328 21.992 3.892 20.844 3.892 18.156C3.892 16.84 4.396 15.636 5.236 14.264ZM39.648 1.02H36.988C37.1 1.552 37.184 2.784 37.212 3.82C37.212 5.024 37.24 7.32 37.24 8.944C37.24 11.8 37.576 17.232 37.576 19.304C37.576 21.236 36.568 22.216 34.524 22.216C31.808 22.216 30.24 21.348 30.24 19.808C30.24 18.24 31.892 17.26 34.804 17.26C39.704 17.26 44.296 20.004 47.096 22.804L48.44 20.704C45.584 18.1 40.6 15.3 35.056 15.3C30.212 15.3 28.028 17.344 28.028 19.892C28.028 23.084 30.856 24.288 34.748 24.288C38.472 24.288 39.872 22.328 39.872 20.06C39.872 17.596 39.424 11.996 39.424 8.944C39.424 7.012 39.424 5.08 39.424 3.82C39.452 2.98 39.536 1.636 39.648 1.02ZM38.192 6.676V8.748C40.208 8.748 44.772 8.552 47.796 8.272L47.712 6.172C44.688 6.536 40.124 6.676 38.192 6.676ZM72.632 13.704C72.632 18.716 67.844 21.376 61.04 22.244L62.328 24.372C69.58 23.252 75.012 19.864 75.012 13.788C75.012 9.784 72.072 7.572 68.096 7.572C64.848 7.572 61.684 8.468 59.724 8.916C58.856 9.084 57.932 9.28 57.148 9.336L57.848 11.912C58.52 11.632 59.36 11.324 60.228 11.072C61.852 10.596 64.624 9.672 67.844 9.672C70.728 9.672 72.632 11.324 72.632 13.704ZM60.872 1.076L60.536 3.204C63.7 3.764 69.328 4.324 72.436 4.548L72.772 2.392C70.056 2.364 63.98 1.776 60.872 1.076ZM83.188 5.36L83.356 7.46C84.392 7.488 85.596 7.516 86.632 7.516C90.048 7.544 93.716 6.928 96.46 6.172L96.404 4.1C93.184 5.164 89.656 5.528 86.632 5.528C85.428 5.528 84.224 5.472 83.188 5.36ZM93.128 0.795999L90.664 0.543999C90.58 2.504 89.964 4.968 89.348 6.732C88.2 10.036 85.596 15.02 83.104 17.932L85.26 19.052C87.584 15.916 90.16 10.82 91.504 6.788C92.176 4.8 92.764 2.168 93.128 0.795999ZM99.736 9.448H97.524C97.636 12.528 97.944 17.54 97.944 19.668C97.944 21.18 97.16 22.412 94.836 22.412C92.652 22.412 91.56 21.516 91.56 20.228C91.56 18.94 92.96 17.988 95.032 17.988C99.148 17.988 102.368 20.48 104.524 22.44L105.7 20.536C103.404 18.548 99.792 16.196 95.088 16.196C91.952 16.196 89.516 17.82 89.516 20.396C89.516 23.196 92.008 24.428 95.088 24.428C98.56 24.428 99.988 22.608 99.988 20.368C99.988 18.52 99.736 14.264 99.68 12.444C99.652 11.436 99.652 10.596 99.736 9.448ZM105.336 10.176L106.596 8.328C105.252 7.32 102.088 5.5 100.044 4.632L98.924 6.312C100.772 7.18 103.824 8.888 105.336 10.176ZM117.852 1.048L117.292 3.204C119.448 3.764 125.496 4.996 128.184 5.36L128.716 3.232C126.224 2.98 120.26 1.832 117.852 1.048ZM117.236 6.172L114.884 5.864C114.716 8.776 114.016 14.656 113.456 17.204L115.556 17.708C115.724 17.26 115.976 16.812 116.396 16.336C118.356 13.956 121.38 12.584 125.048 12.584C127.904 12.584 130.004 14.18 130.004 16.392C130.004 20.228 125.692 22.776 116.844 21.712L117.516 23.98C127.904 24.848 132.356 21.46 132.356 16.476C132.356 13.172 129.5 10.596 125.216 10.596C121.856 10.596 118.776 11.688 116.088 14.04C116.368 12.22 116.872 8.076 117.236 6.172Z" fill="black"/>
</svg>
