<svg width="78" height="37" viewBox="0 0 78 37" fill="none" xmlns="http://www.w3.org/2000/svg">
<path d="M13.8864 1.09091V36H9.65909V5.52273H9.45455L0.931818 11.1818V6.88636L9.65909 1.09091H13.8864ZM35.3125 36.4773C32.7443 36.4773 30.5568 35.7784 28.75 34.3807C26.9432 32.9716 25.5625 30.9318 24.608 28.2614C23.6534 25.5795 23.1761 22.3409 23.1761 18.5455C23.1761 14.7727 23.6534 11.5511 24.608 8.88068C25.5739 6.19886 26.9602 4.15341 28.767 2.74432C30.5852 1.32386 32.767 0.613635 35.3125 0.613635C37.858 0.613635 40.0341 1.32386 41.8409 2.74432C43.6591 4.15341 45.0455 6.19886 46 8.88068C46.9659 11.5511 47.4489 14.7727 47.4489 18.5455C47.4489 22.3409 46.9716 25.5795 46.017 28.2614C45.0625 30.9318 43.6818 32.9716 41.875 34.3807C40.0682 35.7784 37.8807 36.4773 35.3125 36.4773ZM35.3125 32.7273C37.858 32.7273 39.8352 31.5 41.2443 29.0455C42.6534 26.5909 43.358 23.0909 43.358 18.5455C43.358 15.5227 43.0341 12.9489 42.3864 10.8239C41.75 8.69886 40.8295 7.07954 39.625 5.96591C38.4318 4.85227 36.9943 4.29545 35.3125 4.29545C32.7898 4.29545 30.8182 5.53977 29.3977 8.02841C27.9773 10.5057 27.267 14.0114 27.267 18.5455C27.267 21.5682 27.5852 24.1364 28.2216 26.25C28.858 28.3636 29.7727 29.9716 30.9659 31.0739C32.1705 32.1761 33.6193 32.7273 35.3125 32.7273ZM65.3125 36.4773C62.7443 36.4773 60.5568 35.7784 58.75 34.3807C56.9432 32.9716 55.5625 30.9318 54.608 28.2614C53.6534 25.5795 53.1761 22.3409 53.1761 18.5455C53.1761 14.7727 53.6534 11.5511 54.608 8.88068C55.5739 6.19886 56.9602 4.15341 58.767 2.74432C60.5852 1.32386 62.767 0.613635 65.3125 0.613635C67.858 0.613635 70.0341 1.32386 71.8409 2.74432C73.6591 4.15341 75.0455 6.19886 76 8.88068C76.9659 11.5511 77.4489 14.7727 77.4489 18.5455C77.4489 22.3409 76.9716 25.5795 76.017 28.2614C75.0625 30.9318 73.6818 32.9716 71.875 34.3807C70.0682 35.7784 67.8807 36.4773 65.3125 36.4773ZM65.3125 32.7273C67.858 32.7273 69.8352 31.5 71.2443 29.0455C72.6534 26.5909 73.358 23.0909 73.358 18.5455C73.358 15.5227 73.0341 12.9489 72.3864 10.8239C71.75 8.69886 70.8295 7.07954 69.625 5.96591C68.4318 4.85227 66.9943 4.29545 65.3125 4.29545C62.7898 4.29545 60.8182 5.53977 59.3977 8.02841C57.9773 10.5057 57.267 14.0114 57.267 18.5455C57.267 21.5682 57.5852 24.1364 58.2216 26.25C58.858 28.3636 59.7727 29.9716 60.9659 31.0739C62.1705 32.1761 63.6193 32.7273 65.3125 32.7273Z" fill="black"/>
</svg>
