<svg width="25" height="37" viewBox="0 0 25 37" fill="none" xmlns="http://www.w3.org/2000/svg">
<path d="M12.7955 36.4773C10.4545 36.4773 8.38636 36.0625 6.59091 35.233C4.80682 34.392 3.41477 33.2386 2.41477 31.7727C1.41477 30.2955 0.920455 28.6136 0.931818 26.7273C0.920455 25.25 1.21023 23.8864 1.80114 22.6364C2.39205 21.375 3.19886 20.3239 4.22159 19.483C5.25568 18.6307 6.40909 18.0909 7.68182 17.8636V17.6591C6.01136 17.2273 4.68182 16.2898 3.69318 14.8466C2.70455 13.392 2.21591 11.7386 2.22727 9.88636C2.21591 8.11364 2.66477 6.52841 3.57386 5.13068C4.48295 3.73295 5.73295 2.63068 7.32386 1.82386C8.92614 1.01704 10.75 0.613635 12.7955 0.613635C14.8182 0.613635 16.625 1.01704 18.2159 1.82386C19.8068 2.63068 21.0568 3.73295 21.9659 5.13068C22.8864 6.52841 23.3523 8.11364 23.3636 9.88636C23.3523 11.7386 22.8466 13.392 21.8466 14.8466C20.858 16.2898 19.5455 17.2273 17.9091 17.6591V17.8636C19.1705 18.0909 20.3068 18.6307 21.3182 19.483C22.3295 20.3239 23.1364 21.375 23.7386 22.6364C24.3409 23.8864 24.6477 25.25 24.6591 26.7273C24.6477 28.6136 24.1364 30.2955 23.125 31.7727C22.125 33.2386 20.733 34.392 18.9489 35.233C17.1761 36.0625 15.125 36.4773 12.7955 36.4773ZM12.7955 32.7273C14.375 32.7273 15.7386 32.4716 16.8864 31.9602C18.0341 31.4489 18.9205 30.7273 19.5455 29.7955C20.1705 28.8636 20.4886 27.7727 20.5 26.5227C20.4886 25.2045 20.1477 24.0398 19.4773 23.0284C18.8068 22.017 17.892 21.2216 16.733 20.642C15.5852 20.0625 14.2727 19.7727 12.7955 19.7727C11.3068 19.7727 9.97727 20.0625 8.80682 20.642C7.64773 21.2216 6.73295 22.017 6.0625 23.0284C5.40341 24.0398 5.07955 25.2045 5.09091 26.5227C5.07955 27.7727 5.38068 28.8636 5.99432 29.7955C6.61932 30.7273 7.51136 31.4489 8.67045 31.9602C9.82955 32.4716 11.2045 32.7273 12.7955 32.7273ZM12.7955 16.1591C14.0455 16.1591 15.1534 15.9091 16.1193 15.4091C17.0966 14.9091 17.8636 14.2102 18.4205 13.3125C18.9773 12.4148 19.2614 11.3636 19.2727 10.1591C19.2614 8.97727 18.983 7.94886 18.4375 7.07386C17.892 6.1875 17.1364 5.50568 16.1705 5.02841C15.2045 4.53977 14.0795 4.29545 12.7955 4.29545C11.4886 4.29545 10.3466 4.53977 9.36932 5.02841C8.39205 5.50568 7.63636 6.1875 7.10227 7.07386C6.56818 7.94886 6.30682 8.97727 6.31818 10.1591C6.30682 11.3636 6.57386 12.4148 7.11932 13.3125C7.67614 14.2102 8.44318 14.9091 9.42045 15.4091C10.3977 15.9091 11.5227 16.1591 12.7955 16.1591Z" fill="black"/>
</svg>
