<svg width="39" height="42" viewBox="0 0 39 42" fill="none" xmlns="http://www.w3.org/2000/svg">
<path d="M17.608 1.032L13.624 0.887999C13.624 1.512 13.576 2.376 13.48 3.24C13.048 7.368 12.088 15.144 12.088 21.72C12.088 27.816 13.384 34.632 14.776 38.904L18.28 37.848C16.792 33.336 15.448 27.576 15.448 21.336C15.448 14.76 16.264 7.176 17.08 3.144C17.224 2.472 17.416 1.608 17.608 1.032ZM9.88 6.936C7.816 6.936 3.64 6.648 1.96 6.36L2.056 9.96C4.024 10.056 7.768 10.248 9.832 10.248C16.984 10.248 26.44 9.528 33.352 8.328L33.304 4.776C26.68 6.264 18.328 6.936 9.88 6.936ZM29.896 12.6L26.056 11.64C26.008 12.408 25.768 13.704 25.576 14.424C23.368 22.2 19.432 27.384 15.16 31.128C12.088 33.816 8.968 35.16 6.568 35.16C4.792 35.16 3.832 34.2 3.832 32.232C3.832 27.816 8.152 22.536 13.576 20.136C16.024 19.032 19.576 17.88 23.608 17.88C30.76 17.88 34.696 21.96 34.696 26.616C34.696 32.808 29.32 37.272 20.68 38.232L22.744 41.448C33.88 39.672 38.44 33.672 38.44 26.808C38.44 20.088 32.728 14.808 23.656 14.808C20.536 14.808 16.648 15.528 13.432 16.776C6.328 19.512 0.232 26.28 0.232 32.856C0.232 36.936 2.728 38.856 5.896 38.856C9.304 38.856 13.144 37.08 16.216 34.728C21.256 30.84 26.056 24.168 28.888 15.288C29.176 14.52 29.608 13.224 29.896 12.6Z" fill="black"/>
</svg>
