<svg width="44" height="44" viewBox="0 0 44 44" fill="none" xmlns="http://www.w3.org/2000/svg">
<path d="M8.848 3.528H34.768V13.992H8.848V3.528ZM5.44 0.503998V17.064H38.368V0.503998H5.44ZM11.536 5.64C12.88 7.896 14.176 10.92 14.56 12.84L17.104 11.832C16.672 9.864 15.328 6.984 13.936 4.776L11.536 5.64ZM4.576 21V23.976H39.28V21H4.576ZM0.64 28.296V31.512H43.36V28.296H0.64ZM20.08 1.752V29.928H23.728V1.752H20.08ZM29.536 4.728C28.72 6.984 27.136 10.296 25.84 12.312L28.192 13.32C29.44 11.4 31.024 8.376 32.368 5.784L29.536 4.728ZM14.32 34.68C14.848 37.272 15.136 40.584 15.184 42.6L18.688 42.12C18.688 40.2 18.256 36.936 17.632 34.392L14.32 34.68ZM24.16 34.776C25.216 37.272 26.368 40.536 26.752 42.6L30.304 41.736C29.872 39.72 28.672 36.504 27.568 34.104L24.16 34.776ZM33.952 34.584C36.256 37.176 38.944 40.68 40.096 42.936L43.6 41.592C42.352 39.288 39.568 35.88 37.216 33.432L33.952 34.584ZM6.016 33.432C4.864 36.408 2.848 39.624 0.688 41.496L4 43.032C6.304 40.872 8.32 37.416 9.472 34.296L6.016 33.432Z" fill="white"/>
</svg>
