<svg width="39" height="37" viewBox="0 0 39 37" fill="none" xmlns="http://www.w3.org/2000/svg">
<path d="M0.0320003 3.128L0.464 7.352C5.696 6.248 17.888 5.048 23.072 4.52C18.656 7.112 14.096 13.208 14.096 20.696C14.096 31.448 24.176 36.152 33.104 36.488L34.448 32.552C26.672 32.216 17.888 29.24 17.888 19.88C17.888 14.216 22.064 6.872 28.928 4.664C31.376 3.992 35.552 3.896 38.336 3.944L38.288 0.103997C35.072 0.199999 30.608 0.487998 25.376 0.919998C16.496 1.688 7.472 2.552 4.352 2.888C3.392 2.984 1.856 3.08 0.0320003 3.128Z" fill="black"/>
</svg>
