<svg width="35" height="42" viewBox="0 0 35 42" fill="none" xmlns="http://www.w3.org/2000/svg">
<path d="M1.592 6.12L1.832 9.624C8.696 10.296 15.416 10.296 20.264 9.816C24.104 9.48 28.184 8.664 31.304 7.752L30.776 4.248C27.32 5.4 23.384 6.216 19.448 6.552C14.552 7.032 8.264 6.936 1.592 6.12ZM0.632 15.96L0.872 19.56C9.128 20.184 18.008 20.04 23.912 19.272C27.944 18.792 31.592 18.072 34.232 17.352L33.608 13.8C31.064 14.568 27.176 15.528 22.616 16.008C17 16.68 8.84 16.824 0.632 15.96ZM17.048 5.496C17.72 7.896 18.44 10.44 19.64 13.752C21.032 17.64 23.048 22.248 25.688 26.376C24.2 26.184 21.08 25.848 18.488 25.608L18.2 28.536C21.512 28.872 25.976 29.352 28.664 30.024L30.68 27.096C29.96 26.472 29.384 25.8 28.856 25.032C26.36 21.336 24.248 16.728 22.952 12.984C21.752 9.576 20.264 4.728 19.784 0.695998L15.704 1.224C16.232 2.616 16.664 4.104 17.048 5.496ZM7.64 26.328L3.896 25.512C2.792 27.624 1.976 29.64 1.976 32.376C2.072 38.568 7.352 41.352 16.712 41.352C20.84 41.352 24.584 41.064 27.944 40.488L28.136 36.696C24.632 37.368 21.128 37.704 16.664 37.704C9.128 37.704 5.624 35.688 5.624 31.752C5.624 29.592 6.488 27.96 7.64 26.328Z" fill="black"/>
</svg>
