<svg width="164" height="26" viewBox="0 0 164 26" fill="none" xmlns="http://www.w3.org/2000/svg">
<path d="M8.98 0.655999H6.516C6.6 1.104 6.656 2.084 6.656 2.616C6.656 3.764 6.544 8.328 6.544 11.548C6.544 14.656 6.684 18.548 6.684 20.172C6.684 21.096 6.32 21.544 5.676 21.544C4.584 21.544 2.624 20.424 2.624 19.164C2.624 17.736 4.78 15.86 7.524 14.796C9.904 13.844 12.2 13.312 14.72 13.312C17.352 13.312 19.508 14.572 19.508 16.952C19.508 19.556 17.268 20.872 14.832 21.348C13.768 21.572 12.592 21.544 11.528 21.544L12.312 23.784C13.292 23.728 14.552 23.672 15.784 23.392C19.648 22.496 21.776 20.34 21.776 16.952C21.776 13.592 18.836 11.38 14.72 11.38C12.508 11.38 9.708 11.884 7.216 12.864C3.744 14.18 0.412 16.784 0.412 19.248C0.412 21.768 4.052 23.896 6.236 23.896C7.776 23.896 8.728 23.056 8.728 20.48C8.728 18.716 8.588 14.348 8.588 11.436C8.588 8.524 8.728 4.24 8.812 2.588C8.84 1.916 8.896 1.16 8.98 0.655999ZM17.688 3.764L16.652 5.444C18.444 6.396 21.58 8.328 22.952 9.616L24.072 7.824C22.728 6.704 19.676 4.8 17.688 3.764ZM0.888 5.668L0.944 7.824C1.868 7.908 2.932 7.964 4.5 7.964C7.02 7.964 11.612 7.348 14.496 6.648L14.44 4.464C11.668 5.304 7.216 5.892 4.444 5.892C3.436 5.892 2.428 5.864 0.888 5.668ZM28.664 0.795999V2.644H39.696V0.795999H28.664ZM31.604 16.98C31.212 18.912 30.596 20.844 29.728 22.244C30.148 22.412 30.904 22.832 31.24 23.056C32.108 21.628 32.836 19.416 33.256 17.316L31.604 16.98ZM37.288 17.4C37.932 18.884 38.66 20.844 38.912 22.02L40.452 21.432C40.172 20.284 39.416 18.38 38.716 16.924L37.288 17.4ZM28.02 0.795999V11.156C28.02 14.992 27.88 20.116 26.256 23.728C26.648 23.896 27.46 24.456 27.796 24.792C29.588 21.012 29.84 15.216 29.84 11.128V0.795999H28.02ZM32.948 11.268H37.82V14.04H32.948V11.268ZM32.948 7.04H37.82V9.756H32.948V7.04ZM31.268 5.472V15.608H39.556V5.472H31.268ZM34.488 15.244V23.252C34.488 23.504 34.404 23.588 34.152 23.588C33.844 23.616 33.032 23.616 32.024 23.588C32.248 24.064 32.528 24.764 32.612 25.24C33.984 25.24 34.908 25.212 35.496 24.932C36.112 24.624 36.252 24.148 36.252 23.28V15.244H34.488ZM34.46 2.112C34.348 3.26 34.04 4.968 33.788 6.06L35.44 6.396C35.776 5.36 36.168 3.82 36.532 2.392L34.46 2.112ZM40.284 0.795999V2.616H52.212V0.795999H40.284ZM43.028 11.268H49.58V14.012H43.028V11.268ZM43.028 15.552H49.58V18.352H43.028V15.552ZM43.028 6.984H49.58V9.672H43.028V6.984ZM41.208 5.332V19.976H51.456V5.332H41.208ZM45.24 1.692C45.128 2.98 44.792 4.884 44.512 6.116L46.22 6.452C46.584 5.276 47.004 3.54 47.396 1.944L45.24 1.692ZM43.532 20.592C42.552 21.74 40.508 23.14 38.744 23.952C39.136 24.316 39.78 24.904 40.06 25.296C41.852 24.456 43.98 23 45.296 21.6L43.532 20.592ZM47.256 21.6C48.656 22.692 50.392 24.26 51.204 25.268L52.8 24.176C51.932 23.14 50.168 21.656 48.824 20.592L47.256 21.6ZM59.744 3.484L57.028 3.428C57.196 4.072 57.196 5.276 57.196 5.92C57.196 7.544 57.252 10.96 57.504 13.368C58.288 20.62 60.808 23.252 63.468 23.252C65.372 23.252 67.052 21.628 68.76 16.896L66.996 14.908C66.268 17.708 64.952 20.592 63.524 20.592C61.508 20.592 60.164 17.484 59.688 12.808C59.492 10.512 59.464 7.936 59.492 6.2C59.52 5.472 59.604 4.128 59.744 3.484ZM74.304 4.24L72.148 4.996C74.808 8.272 76.516 14.04 76.992 19.08L79.26 18.184C78.84 13.452 76.824 7.488 74.304 4.24ZM91.02 1.188H88.164C88.332 2 88.416 2.98 88.416 4.016C88.416 6.956 88.136 14.04 88.136 18.184C88.136 22.776 90.908 24.428 94.94 24.428C101.072 24.428 104.712 20.928 106.616 18.268L105.048 16.364C103.032 19.276 100.12 22.132 94.996 22.132C92.336 22.132 90.404 21.068 90.404 17.988C90.404 13.816 90.628 7.18 90.74 4.016C90.796 3.092 90.88 2.112 91.02 1.188ZM125.516 0.795999H123.136C123.22 1.16 123.248 2 123.248 2.476C123.248 4.436 123.248 7.376 123.248 9.896C123.248 12.36 123.528 17.736 123.528 19.892C123.528 21.852 122.156 22.328 120.532 22.328C117.76 22.328 116.668 21.376 116.668 20.06C116.668 18.772 118.096 17.736 120.784 17.736C125.768 17.736 129.912 20.536 132.432 22.86L133.72 20.872C131.564 19.108 126.944 15.916 121.036 15.916C117.004 15.916 114.568 17.624 114.568 20.172C114.568 22.888 116.78 24.316 120.812 24.316C124.452 24.316 125.74 22.328 125.74 20.368C125.74 18.492 125.32 13.592 125.32 9.896C125.32 7.544 125.32 3.792 125.376 2.672C125.404 1.832 125.46 1.272 125.516 0.795999ZM114.82 3.82L114.848 5.892C116.612 6.116 120.056 6.368 121.988 6.368C125.74 6.368 129.744 6.004 132.908 5.64V3.596C129.268 4.184 125.516 4.436 121.96 4.436C120.112 4.436 116.612 4.156 114.82 3.82ZM114.68 9.784L114.708 11.884C116.696 12.108 119.776 12.248 121.708 12.248C125.908 12.248 129.324 12.052 133.132 11.576V9.476C129.492 10.008 125.768 10.288 121.708 10.288C119.86 10.288 116.668 10.092 114.68 9.784ZM155.056 0.823998H152.48C152.536 1.076 152.62 1.86 152.676 2.616C152.76 4.156 152.788 9.728 152.788 10.96L154.916 12.052C154.888 9.812 154.832 4.408 154.916 2.588C154.916 2.252 155 1.16 155.056 0.823998ZM140.16 4.744L140.216 6.9C144.444 6.592 150.436 6.396 155.252 6.396C159.368 6.396 161.888 6.452 163.456 6.536L163.484 4.464C162.168 4.436 158.696 4.436 155.28 4.436C150.968 4.436 143.968 4.688 140.16 4.744ZM154.86 12.864L153.32 12.08C153.768 15.076 152.648 16.532 150.912 16.532C149.372 16.532 148.056 15.524 148.056 13.76C148.056 11.94 149.428 10.792 150.912 10.792C152.424 10.792 153.656 11.856 153.656 14.376C153.656 18.996 150.688 21.488 145.592 22.692L147.468 24.512C153.964 22.58 155.812 18.38 155.812 14.572C155.812 11.352 154.16 8.944 150.912 8.944C148.252 8.944 145.956 11.016 145.956 13.788C145.956 16.84 148.224 18.492 150.576 18.492C153.124 18.492 154.86 16.616 154.86 12.864Z" fill="black"/>
</svg>
