<svg width="35" height="42" viewBox="0 0 35 42" fill="none" xmlns="http://www.w3.org/2000/svg">
<path d="M18.104 5.016C18.632 6.504 19.304 8.712 20.36 11.448C21.944 15.816 24.584 20.568 26.6 23.64C24.872 23.448 21.32 23.16 18.632 22.92L18.344 26.088C21.8 26.328 27.656 26.856 29.96 27.432L31.88 24.696C31.16 23.928 30.44 23.112 29.816 22.152C27.752 19.368 25.304 14.904 23.816 10.776C22.712 7.656 21.464 3.528 21.032 0.743998L16.904 1.224C17.384 2.52 17.816 3.96 18.104 5.016ZM0.536 8.76L0.632 12.552C9.128 13.272 16.76 13.224 22.856 12.504C26.36 12.072 30.92 11.304 34.328 10.344L33.896 6.552C30.152 7.848 25.4 8.712 21.608 9.144C16.136 9.72 8.552 9.672 0.536 8.76ZM7.976 24.024L4.232 23.16C2.84 25.992 1.88 28.488 1.88 31.176C1.88 37.704 7.64 40.968 16.76 41.016C22.136 41.064 26.168 40.536 29.192 40.008L29.336 36.168C26.024 36.888 21.848 37.368 17 37.368C9.848 37.272 5.672 35.304 5.672 30.696C5.672 28.44 6.536 26.376 7.976 24.024Z" fill="black"/>
</svg>
