<svg width="40" height="41" viewBox="0 0 40 41" fill="none" xmlns="http://www.w3.org/2000/svg">
<path d="M28.112 0.847998L23.936 0.463997C23.984 1.568 23.84 3.152 23.648 4.112C22.448 11.12 19.232 19.904 16.064 24.8C13.616 28.688 10.256 32.768 7.136 32.768C4.976 32.768 3.584 30.848 3.584 27.68C3.584 23.36 6.176 18.224 10.256 15.296C14 12.512 18.176 10.928 22.832 10.928C30.56 10.928 35.648 16.112 35.648 23.168C35.648 30.608 30.128 35.84 20.096 36.752L22.304 40.16C32.624 38.72 39.488 32.912 39.488 23.312C39.488 13.952 32.672 7.616 23.264 7.616C18.32 7.616 13.616 8.864 8.864 12.08C3.776 15.488 0.08 21.872 0.08 27.92C0.08 33.536 3.152 36.56 6.8 36.56C11.168 36.56 14.672 32.96 18.32 27.872C22.16 22.592 25.52 12.56 27.248 4.64C27.488 3.728 27.776 2.048 28.112 0.847998ZM8.432 3.056L4.448 4.304C5.072 5.552 5.6 7.136 6.08 8.672C7.904 14.672 10.688 22.016 13.04 25.76C14.864 28.88 16.64 31.232 18.56 33.344L21.584 30.896C19.28 28.688 17.024 25.52 15.392 22.736C13.376 19.376 10.688 11.984 9.44 7.28C9.056 5.936 8.672 4.352 8.432 3.056Z" fill="black"/>
</svg>
