<svg width="128" height="43" viewBox="0 0 128 43" fill="none" xmlns="http://www.w3.org/2000/svg">
<path d="M0.448001 1.944V42.312H4.144V5.592H28.096V42.12H31.888V1.944H0.448001ZM2.896 18.6V22.152H29.68V18.6H2.896ZM2.848 35.592V39.192H29.776V35.592H2.848ZM58.912 6.504V9.048H68.752V6.504H58.912ZM58.096 0.503998V3.096H67.024V12.6H58.048V15.24H70.192V0.503998H58.096ZM72.832 6.504V9.048H82.96V6.504H72.832ZM72.16 0.503998V3.096H81.328V12.6H72.112V15.24H84.496V0.503998H72.16ZM62.368 25.56V28.104H83.68V25.56H62.368ZM62.368 31.8V34.344H83.68V31.8H62.368ZM62.512 38.328V41.112H86.08V38.328H62.512ZM63.472 14.568C61.888 18.552 58.576 23.304 55.072 26.28C55.696 26.856 56.704 28.008 57.232 28.68C61.12 25.368 64.672 20.232 66.832 15.576L63.472 14.568ZM63.76 19.032H63.232L60.448 21.96V42.6H63.76V21.864H84.88V19.032H63.76ZM73.504 14.856C73.024 16.488 71.968 18.984 71.152 20.664L73.84 21.48C74.8 19.992 76 17.784 77.056 15.672L73.504 14.856ZM71.2 21.192V39.384H74.416V21.192H71.2ZM45.376 1.704V4.968H52.816V30.36H45.376V33.576H56.08V1.704H45.376ZM45.568 15.768V18.984H54.496V15.768H45.568ZM43.696 1.704V37.56H46.912V1.704H43.696ZM96.448 1.944V42.312H100.144V5.592H124.096V42.12H127.888V1.944H96.448ZM98.896 18.6V22.152H125.68V18.6H98.896ZM98.848 35.592V39.192H125.776V35.592H98.848Z" fill="black"/>
</svg>
