<svg width="136" height="60" viewBox="0 0 136 60" fill="none" xmlns="http://www.w3.org/2000/svg">
<path d="M10.688 1.852L8.364 1.768C8.364 2.132 8.336 2.636 8.28 3.14C8.028 5.548 7.468 10.084 7.468 13.92C7.468 17.476 8.224 21.452 9.036 23.944L11.08 23.328C10.212 20.696 9.428 17.336 9.428 13.696C9.428 9.86 9.904 5.436 10.38 3.084C10.464 2.692 10.576 2.188 10.688 1.852ZM6.18 5.296C4.976 5.296 2.54 5.128 1.56 4.96L1.616 7.06C2.764 7.116 4.948 7.228 6.152 7.228C10.324 7.228 15.84 6.808 19.872 6.108L19.844 4.036C15.98 4.904 11.108 5.296 6.18 5.296ZM17.856 8.6L15.616 8.04C15.588 8.488 15.448 9.244 15.336 9.664C14.048 14.2 11.752 17.224 9.26 19.408C7.468 20.976 5.648 21.76 4.248 21.76C3.212 21.76 2.652 21.2 2.652 20.052C2.652 17.476 5.172 14.396 8.336 12.996C9.764 12.352 11.836 11.68 14.188 11.68C18.36 11.68 20.656 14.06 20.656 16.776C20.656 20.388 17.52 22.992 12.48 23.552L13.684 25.428C20.18 24.392 22.84 20.892 22.84 16.888C22.84 12.968 19.508 9.888 14.216 9.888C12.396 9.888 10.128 10.308 8.252 11.036C4.108 12.632 0.552 16.58 0.552 20.416C0.552 22.796 2.008 23.916 3.856 23.916C5.844 23.916 8.084 22.88 9.876 21.508C12.816 19.24 15.616 15.348 17.268 10.168C17.436 9.72 17.688 8.964 17.856 8.6ZM34.964 1.908L32.528 1.824C32.472 2.608 32.416 3.392 32.304 4.232C31.968 6.528 31.436 10.644 31.436 13.304C31.436 15.124 31.576 16.692 31.716 17.756L33.9 17.588C33.704 16.188 33.704 15.208 33.844 14.144C34.18 10.476 37.428 5.38 40.928 5.38C43.868 5.38 45.352 8.572 45.352 12.996C45.352 20.024 40.62 22.488 34.516 23.412L35.86 25.428C42.776 24.168 47.676 20.724 47.676 12.968C47.676 7.088 44.988 3.336 41.292 3.336C37.736 3.336 34.824 6.836 33.676 9.72C33.844 7.76 34.376 3.98 34.964 1.908ZM65.372 2.272L62.768 1.992C62.768 4.148 62.404 6.668 61.872 8.908C61.116 12.324 58.876 19.8 55.684 24.084L57.98 24.98C61.144 19.884 63.132 12.912 64.084 8.964C64.476 7.228 64.84 4.932 65.036 3.924C65.148 3.392 65.26 2.776 65.372 2.272ZM75.004 5.492L72.96 6.416C74.92 8.74 77.132 13.612 77.944 16.468L80.128 15.432C79.176 12.856 76.74 7.76 75.004 5.492ZM55.292 8.404L55.516 10.84C56.244 10.728 57.392 10.588 58.036 10.504C59.744 10.336 65.008 9.692 66.884 9.692C68.676 9.692 69.852 10.168 69.852 12.744C69.852 15.768 69.404 19.408 68.508 21.312C67.948 22.516 67.108 22.74 66.072 22.74C65.288 22.74 63.804 22.544 62.628 22.18L63.02 24.504C63.888 24.728 65.232 24.924 66.296 24.924C68.116 24.924 69.516 24.448 70.384 22.572C71.56 20.248 72.008 15.796 72.008 12.464C72.008 8.684 69.964 7.732 67.472 7.732C65.568 7.732 59.884 8.348 57.784 8.404C56.888 8.432 56.16 8.46 55.292 8.404ZM75.312 1.432L73.8 2.076C74.584 3.14 75.536 4.82 76.096 5.968L77.608 5.296C77.02 4.148 76.012 2.44 75.312 1.432ZM78.392 0.312L76.908 0.956C77.72 1.992 78.644 3.588 79.232 4.82L80.772 4.148C80.212 3.112 79.148 1.348 78.392 0.312ZM104.264 7.312L103.06 5.296C102.472 5.772 101.856 6.136 101.044 6.612C99.224 7.648 95.304 9.524 92.448 11.428C89.144 13.612 87.1 15.992 87.1 19.016C87.1 23.216 90.908 24.784 96.172 24.784C99.672 24.784 102.92 24.476 105.02 24.112L105.048 21.592C102.864 22.152 99.112 22.544 96.088 22.544C91.664 22.544 89.424 21.088 89.424 18.764C89.424 16.664 90.992 14.816 93.596 13.108C96.34 11.316 100.232 9.468 102.108 8.488C102.948 8.068 103.648 7.676 104.264 7.312ZM90.096 2.216L87.884 3.168C89.396 6.64 91.076 10.42 92.504 12.716L94.408 11.568C93.12 9.3 91.384 5.8 90.096 2.216ZM129.632 14.704C129.632 19.716 124.844 22.376 118.04 23.244L119.328 25.372C126.58 24.252 132.012 20.864 132.012 14.788C132.012 10.784 129.072 8.572 125.096 8.572C121.848 8.572 118.684 9.468 116.724 9.916C115.856 10.084 114.932 10.28 114.148 10.336L114.848 12.912C115.52 12.632 116.36 12.324 117.228 12.072C118.852 11.596 121.624 10.672 124.844 10.672C127.728 10.672 129.632 12.324 129.632 14.704ZM117.872 2.076L117.536 4.204C120.7 4.764 126.328 5.324 129.436 5.548L129.772 3.392C127.056 3.364 120.98 2.776 117.872 2.076ZM3.548 38.652V40.948C5.76 41.116 8.168 41.256 10.968 41.256C13.544 41.256 16.624 41.06 18.528 40.92V38.624C16.484 38.82 13.656 39.016 10.968 39.016C8.168 39.016 5.564 38.904 3.548 38.652ZM4.696 49.936L2.4 49.74C2.148 50.86 1.84 52.176 1.84 53.632C1.84 57.132 5.116 59.008 10.828 59.008C14.804 59.008 18.36 58.588 20.376 58.028L20.348 55.648C18.22 56.32 14.636 56.74 10.772 56.74C6.264 56.74 4.108 55.284 4.108 53.128C4.108 52.092 4.332 51.056 4.696 49.936ZM19.312 35.544L17.8 36.188C18.556 37.224 19.508 38.932 20.068 40.08L21.608 39.408C21.02 38.26 20.012 36.552 19.312 35.544ZM22.392 34.424L20.908 35.068C21.692 36.104 22.616 37.7 23.232 38.932L24.744 38.232C24.212 37.196 23.12 35.46 22.392 34.424ZM47.116 34.984L45.604 35.628C46.388 36.692 47.34 38.4 47.9 39.52L49.412 38.848C48.824 37.728 47.816 35.992 47.116 34.984ZM50.224 33.892L48.74 34.536C49.524 35.6 50.448 37.168 51.064 38.4L52.576 37.728C52.044 36.692 50.952 34.928 50.224 33.892ZM39.864 38.372C40.144 39.268 40.536 40.528 41.152 42.152C42.104 44.672 43.616 47.472 44.82 49.236C43.812 49.124 41.74 48.956 40.172 48.816L40.004 50.692C42.02 50.832 45.408 51.14 46.752 51.448L47.9 49.88C47.48 49.404 47.06 48.928 46.668 48.396C45.492 46.744 44.064 44.168 43.196 41.732C42.524 39.912 41.824 37.504 41.544 35.88L39.164 36.188C39.416 36.916 39.668 37.784 39.864 38.372ZM29.616 40.556L29.672 42.796C34.6 43.188 39.052 43.16 42.608 42.74C44.652 42.516 47.34 42.068 49.328 41.48L49.076 39.296C46.892 40.024 44.12 40.528 41.908 40.78C38.688 41.116 34.292 41.116 29.616 40.556ZM33.928 49.488L31.744 48.984C30.932 50.636 30.4 52.092 30.4 53.632C30.4 57.44 33.76 59.344 39.08 59.4C42.188 59.4 44.568 59.092 46.304 58.784L46.416 56.544C44.456 56.992 42.048 57.272 39.192 57.244C35.02 57.216 32.612 56.04 32.612 53.38C32.612 52.036 33.088 50.832 33.928 49.488ZM59.744 38.484L57.028 38.428C57.196 39.072 57.196 40.276 57.196 40.92C57.196 42.544 57.252 45.96 57.504 48.368C58.288 55.62 60.808 58.252 63.468 58.252C65.372 58.252 67.052 56.628 68.76 51.896L66.996 49.908C66.268 52.708 64.952 55.592 63.524 55.592C61.508 55.592 60.164 52.484 59.688 47.808C59.492 45.512 59.464 42.936 59.492 41.2C59.52 40.472 59.604 39.128 59.744 38.484ZM74.304 39.24L72.148 39.996C74.808 43.272 76.516 49.04 76.992 54.08L79.26 53.184C78.84 48.452 76.824 42.488 74.304 39.24ZM97.516 35.796H95.136C95.22 36.16 95.248 37 95.248 37.476C95.248 39.436 95.248 42.376 95.248 44.896C95.248 47.36 95.528 52.736 95.528 54.892C95.528 56.852 94.156 57.328 92.532 57.328C89.76 57.328 88.668 56.376 88.668 55.06C88.668 53.772 90.096 52.736 92.784 52.736C97.768 52.736 101.912 55.536 104.432 57.86L105.72 55.872C103.564 54.108 98.944 50.916 93.036 50.916C89.004 50.916 86.568 52.624 86.568 55.172C86.568 57.888 88.78 59.316 92.812 59.316C96.452 59.316 97.74 57.328 97.74 55.368C97.74 53.492 97.32 48.592 97.32 44.896C97.32 42.544 97.32 38.792 97.376 37.672C97.404 36.832 97.46 36.272 97.516 35.796ZM86.82 38.82L86.848 40.892C88.612 41.116 92.056 41.368 93.988 41.368C97.74 41.368 101.744 41.004 104.908 40.64V38.596C101.268 39.184 97.516 39.436 93.96 39.436C92.112 39.436 88.612 39.156 86.82 38.82ZM86.68 44.784L86.708 46.884C88.696 47.108 91.776 47.248 93.708 47.248C97.908 47.248 101.324 47.052 105.132 46.576V44.476C101.492 45.008 97.768 45.288 93.708 45.288C91.86 45.288 88.668 45.092 86.68 44.784ZM127.056 35.824H124.48C124.536 36.076 124.62 36.86 124.676 37.616C124.76 39.156 124.788 44.728 124.788 45.96L126.916 47.052C126.888 44.812 126.832 39.408 126.916 37.588C126.916 37.252 127 36.16 127.056 35.824ZM112.16 39.744L112.216 41.9C116.444 41.592 122.436 41.396 127.252 41.396C131.368 41.396 133.888 41.452 135.456 41.536L135.484 39.464C134.168 39.436 130.696 39.436 127.28 39.436C122.968 39.436 115.968 39.688 112.16 39.744ZM126.86 47.864L125.32 47.08C125.768 50.076 124.648 51.532 122.912 51.532C121.372 51.532 120.056 50.524 120.056 48.76C120.056 46.94 121.428 45.792 122.912 45.792C124.424 45.792 125.656 46.856 125.656 49.376C125.656 53.996 122.688 56.488 117.592 57.692L119.468 59.512C125.964 57.58 127.812 53.38 127.812 49.572C127.812 46.352 126.16 43.944 122.912 43.944C120.252 43.944 117.956 46.016 117.956 48.788C117.956 51.84 120.224 53.492 122.576 53.492C125.124 53.492 126.86 51.616 126.86 47.864Z" fill="black"/>
</svg>
