<svg width="43" height="39" viewBox="0 0 43 39" fill="none" xmlns="http://www.w3.org/2000/svg">
<path d="M33.472 0.991999H29.392C29.536 1.856 29.68 3.536 29.68 4.64C29.68 7.28 29.68 10.64 29.632 13.328C29.584 16.736 29.392 20.912 29.104 22.736C28.912 23.84 28.432 24.032 27.232 24.032C26.128 24.032 24.112 23.792 22.432 23.408L22.384 26.768C23.632 27.008 26.944 27.44 28.72 27.44C30.88 27.44 31.984 26.816 32.416 24.656C32.896 22.16 33.04 16.976 33.136 13.28C33.232 10.832 33.232 7.472 33.28 4.496C33.28 3.44 33.376 1.808 33.472 0.991999ZM14.512 2.528H10.288C10.528 3.968 10.576 5.12 10.576 6.56C10.576 8.768 10.528 24.608 10.624 28.64C10.816 36.272 11.872 38.864 22.96 38.864C27.856 38.864 33.712 38.384 36.928 38.048L37.072 34.016C33.952 34.592 28 35.12 22.768 35.12C14.464 35.12 14.416 33.296 14.224 28.112C14.128 24.8 14.272 11.6 14.32 6.416C14.32 4.928 14.368 3.632 14.512 2.528ZM0.16 14L0.544 17.936C1.888 17.744 3.952 17.456 5.392 17.264C11.488 16.544 30.784 14.528 38.464 14.384C39.664 14.384 41.488 14.336 42.208 14.384V10.592C41.104 10.688 39.712 10.784 38.464 10.832C28.624 11.36 10.336 13.28 5.152 13.712C3.424 13.904 1.648 14 0.16 14Z" fill="black"/>
</svg>
