<svg width="135" height="45" viewBox="0 0 135 45" fill="none" xmlns="http://www.w3.org/2000/svg">
<path d="M2.168 12.536V16.088H43.832V12.536H2.168ZM21.032 0.727998V44.84H24.824V0.727998H21.032ZM20.216 14.36C16.136 23.288 8.216 32.408 0.296 36.68C1.16 37.448 2.36 38.792 3.032 39.752C11.096 34.808 18.872 25.4 23.336 15.416L20.216 14.36ZM25.544 14.408L22.52 15.512C27.08 25.112 34.952 34.664 42.776 39.608C43.4 38.648 44.648 37.208 45.56 36.488C37.832 32.216 29.72 23.096 25.544 14.408ZM65.912 8.504V11.048H75.752V8.504H65.912ZM65.096 2.504V5.096H74.024V14.6H65.048V17.24H77.192V2.504H65.096ZM79.832 8.504V11.048H89.96V8.504H79.832ZM79.16 2.504V5.096H88.328V14.6H79.112V17.24H91.496V2.504H79.16ZM69.368 27.56V30.104H90.68V27.56H69.368ZM69.368 33.8V36.344H90.68V33.8H69.368ZM69.512 40.328V43.112H93.08V40.328H69.512ZM70.472 16.568C68.888 20.552 65.576 25.304 62.072 28.28C62.696 28.856 63.704 30.008 64.232 30.68C68.12 27.368 71.672 22.232 73.832 17.576L70.472 16.568ZM70.76 21.032H70.232L67.448 23.96V44.6H70.76V23.864H91.88V21.032H70.76ZM80.504 16.856C80.024 18.488 78.968 20.984 78.152 22.664L80.84 23.48C81.8 21.992 83 19.784 84.056 17.672L80.504 16.856ZM78.2 23.192V41.384H81.416V23.192H78.2ZM52.376 3.704V6.968H59.816V32.36H52.376V35.576H63.08V3.704H52.376ZM52.568 17.768V20.984H61.496V17.768H52.568ZM50.696 3.704V39.56H53.912V3.704H50.696ZM103.448 3.944V44.312H107.144V7.592H131.096V44.12H134.888V3.944H103.448ZM105.896 20.6V24.152H132.68V20.6H105.896ZM105.848 37.592V41.192H132.776V37.592H105.848Z" fill="black"/>
</svg>
