<svg width="136" height="25" viewBox="0 0 136 25" fill="none" xmlns="http://www.w3.org/2000/svg">
<path d="M15.4798 0.823998H12.9038C12.9598 1.076 13.0438 1.86 13.0998 2.616C13.1838 4.156 13.2118 9.728 13.2118 10.96L15.3398 12.052C15.3118 9.812 15.2558 4.408 15.3398 2.588C15.3398 2.252 15.4238 1.16 15.4798 0.823998ZM0.583828 4.744L0.639828 6.9C4.86783 6.592 10.8598 6.396 15.6758 6.396C19.7918 6.396 22.3118 6.452 23.8798 6.536L23.9078 4.464C22.5918 4.436 19.1198 4.436 15.7038 4.436C11.3918 4.436 4.39183 4.688 0.583828 4.744ZM15.2838 12.864L13.7438 12.08C14.1918 15.076 13.0718 16.532 11.3358 16.532C9.79583 16.532 8.47983 15.524 8.47983 13.76C8.47983 11.94 9.85183 10.792 11.3358 10.792C12.8478 10.792 14.0798 11.856 14.0798 14.376C14.0798 18.996 11.1118 21.488 6.01583 22.692L7.89183 24.512C14.3878 22.58 16.2358 18.38 16.2358 14.572C16.2358 11.352 14.5838 8.944 11.3358 8.944C8.67583 8.944 6.37983 11.016 6.37983 13.788C6.37983 16.84 8.64783 18.492 10.9998 18.492C13.5478 18.492 15.2838 16.616 15.2838 12.864ZM32.1678 2.476L32.2518 4.772C32.9238 4.688 33.7358 4.604 34.3518 4.576C35.6118 4.52 39.0278 4.352 40.1478 4.324C39.1958 6.312 37.9358 9.196 36.8158 11.632C35.7518 13.984 34.4918 17.232 33.3438 18.744C32.7558 19.5 32.2798 19.724 31.6358 19.724C30.7678 19.724 29.9558 19.08 29.9558 17.82C29.9558 15.244 32.6158 12.64 37.2638 12.64C43.0318 12.64 48.1558 15.748 51.4318 18.576L52.4678 16.196C49.4438 14.04 43.8998 10.68 37.5998 10.68C31.9158 10.68 27.9398 13.9 27.9398 18.128C27.9398 20.452 29.4798 21.964 31.5518 21.964C33.0078 21.964 34.0998 21.432 35.0798 20.004C36.2838 18.268 37.8238 14.46 38.9438 11.996C40.2318 9.112 41.7718 5.528 42.6678 4.072C42.8918 3.708 43.1158 3.428 43.3958 3.12L41.9958 2C41.6038 2.14 41.1278 2.252 40.5958 2.28C39.4198 2.392 35.7518 2.56 34.2678 2.56C33.6798 2.56 32.8678 2.532 32.1678 2.476ZM49.6678 8.608L47.3718 8.356C47.4558 9.168 47.4278 10.12 47.3718 10.96C47.0638 15.104 45.8598 20.396 39.2798 23.168L41.1278 24.708C47.6518 21.432 49.2758 16.588 49.6678 8.608ZM69.9398 0.795999H67.5598C67.6438 1.16 67.6718 2 67.6718 2.476C67.6718 4.436 67.6718 7.376 67.6718 9.896C67.6718 12.36 67.9518 17.736 67.9518 19.892C67.9518 21.852 66.5798 22.328 64.9558 22.328C62.1838 22.328 61.0918 21.376 61.0918 20.06C61.0918 18.772 62.5198 17.736 65.2078 17.736C70.1918 17.736 74.3358 20.536 76.8558 22.86L78.1438 20.872C75.9878 19.108 71.3678 15.916 65.4598 15.916C61.4278 15.916 58.9918 17.624 58.9918 20.172C58.9918 22.888 61.2038 24.316 65.2358 24.316C68.8758 24.316 70.1638 22.328 70.1638 20.368C70.1638 18.492 69.7438 13.592 69.7438 9.896C69.7438 7.544 69.7438 3.792 69.7998 2.672C69.8278 1.832 69.8838 1.272 69.9398 0.795999ZM59.2438 3.82L59.2718 5.892C61.0358 6.116 64.4798 6.368 66.4118 6.368C70.1638 6.368 74.1678 6.004 77.3318 5.64V3.596C73.6918 4.184 69.9398 4.436 66.3838 4.436C64.5358 4.436 61.0358 4.156 59.2438 3.82ZM59.1038 9.784L59.1318 11.884C61.1198 12.108 64.1998 12.248 66.1318 12.248C70.3318 12.248 73.7478 12.052 77.5558 11.576V9.476C73.9158 10.008 70.1918 10.288 66.1318 10.288C64.2838 10.288 61.0918 10.092 59.1038 9.784ZM101.768 1.412H99.3882C99.4722 1.916 99.5562 2.896 99.5562 3.54C99.5562 5.08 99.5562 7.04 99.5282 8.608C99.5002 10.596 99.3882 13.032 99.2202 14.096C99.1082 14.74 98.8282 14.852 98.1282 14.852C97.4842 14.852 96.3082 14.712 95.3282 14.488L95.3002 16.448C96.0282 16.588 97.9602 16.84 98.9962 16.84C100.256 16.84 100.9 16.476 101.152 15.216C101.432 13.76 101.516 10.736 101.572 8.58C101.628 7.152 101.628 5.192 101.656 3.456C101.656 2.84 101.712 1.888 101.768 1.412ZM90.7082 2.308H88.2442C88.3842 3.148 88.4122 3.82 88.4122 4.66C88.4122 5.948 88.3842 15.188 88.4402 17.54C88.5522 21.992 89.1682 23.504 95.6362 23.504C98.4922 23.504 101.908 23.224 103.784 23.028L103.868 20.676C102.048 21.012 98.5762 21.32 95.5242 21.32C90.6802 21.32 90.6522 20.256 90.5402 17.232C90.4842 15.3 90.5682 7.6 90.5962 4.576C90.5962 3.708 90.6242 2.952 90.7082 2.308ZM82.3362 9L82.5602 11.296C83.3442 11.184 84.5482 11.016 85.3882 10.904C88.9442 10.484 100.2 9.308 104.68 9.224C105.38 9.224 106.444 9.196 106.864 9.224V7.012C106.22 7.068 105.408 7.124 104.68 7.152C98.9402 7.46 88.2722 8.58 85.2482 8.832C84.2402 8.944 83.2042 9 82.3362 9ZM124.392 2.224L121.9 1.216C121.564 2.056 121.2 2.728 120.892 3.4C119.352 6.088 113.22 17.568 111.176 23.224L113.584 24.064C113.976 22.692 115.152 19.36 116.02 17.708C117.084 15.496 119.212 13.2 121.452 13.2C122.712 13.2 123.44 13.956 123.496 15.16C123.58 16.7 123.552 18.856 123.636 20.508C123.72 22.16 124.7 24.036 127.696 24.036C131.756 24.036 134.108 20.9 135.592 16.392L133.716 14.88C133.016 17.876 131.168 21.74 128.032 21.74C126.828 21.74 125.876 21.124 125.792 19.724C125.68 18.352 125.736 16.224 125.68 14.572C125.596 12.36 124.252 11.156 122.376 11.156C121.032 11.156 119.576 11.688 118.232 12.892C119.66 10.176 122.236 5.528 123.496 3.596C123.804 3.064 124.14 2.56 124.392 2.224Z" fill="black"/>
</svg>
