<svg width="135" height="43" viewBox="0 0 135 43" fill="none" xmlns="http://www.w3.org/2000/svg">
<path d="M11.144 1.224V4.728H36.2V1.224H11.144ZM11.144 12.792V16.248H36.392V12.792H11.144ZM10.76 24.408V27.864H36.152V24.408H10.76ZM8.936 1.224V16.056C8.936 23.784 8.12 33.528 0.392 40.296C1.16 40.824 2.6 42.12 3.128 42.888C11.384 35.688 12.584 24.36 12.584 16.056V1.224H8.936ZM34.616 1.224V37.512C34.616 38.568 34.232 38.904 33.128 38.952C32.024 38.952 28.088 39 24.104 38.856C24.728 39.864 25.4 41.592 25.64 42.648C30.824 42.648 33.992 42.6 35.864 41.976C37.688 41.352 38.36 40.104 38.36 37.56V1.224H34.616ZM65.912 6.504V9.048H75.752V6.504H65.912ZM65.096 0.503998V3.096H74.024V12.6H65.048V15.24H77.192V0.503998H65.096ZM79.832 6.504V9.048H89.96V6.504H79.832ZM79.16 0.503998V3.096H88.328V12.6H79.112V15.24H91.496V0.503998H79.16ZM69.368 25.56V28.104H90.68V25.56H69.368ZM69.368 31.8V34.344H90.68V31.8H69.368ZM69.512 38.328V41.112H93.08V38.328H69.512ZM70.472 14.568C68.888 18.552 65.576 23.304 62.072 26.28C62.696 26.856 63.704 28.008 64.232 28.68C68.12 25.368 71.672 20.232 73.832 15.576L70.472 14.568ZM70.76 19.032H70.232L67.448 21.96V42.6H70.76V21.864H91.88V19.032H70.76ZM80.504 14.856C80.024 16.488 78.968 18.984 78.152 20.664L80.84 21.48C81.8 19.992 83 17.784 84.056 15.672L80.504 14.856ZM78.2 21.192V39.384H81.416V21.192H78.2ZM52.376 1.704V4.968H59.816V30.36H52.376V33.576H63.08V1.704H52.376ZM52.568 15.768V18.984H61.496V15.768H52.568ZM50.696 1.704V37.56H53.912V1.704H50.696ZM103.448 1.944V42.312H107.144V5.592H131.096V42.12H134.888V1.944H103.448ZM105.896 18.6V22.152H132.68V18.6H105.896ZM105.848 35.592V39.192H132.776V35.592H105.848Z" fill="black"/>
</svg>
