<svg width="135" height="45" viewBox="0 0 135 45" fill="none" xmlns="http://www.w3.org/2000/svg">
<path d="M1.592 13.016V16.616H16.04V13.016H1.592ZM21.176 0.823999V39.8C21.176 40.712 20.792 41 19.88 41.048C18.872 41.048 15.8 41.096 12.344 40.952C12.92 42.056 13.64 43.832 13.784 44.888C18.248 44.888 21.032 44.792 22.664 44.12C24.248 43.496 24.92 42.344 24.92 39.8V0.823999H21.176ZM14.792 13.016V13.832C12.776 24.824 7.256 33.032 0.392 37.352C1.256 37.928 2.696 39.368 3.32 40.232C10.376 35.432 16.184 26.456 18.632 13.784L16.184 12.872L15.56 13.016H14.792ZM24.728 8.648L21.848 9.32C25.4 23.528 31.928 35.768 42.872 41.192C43.496 40.088 44.744 38.648 45.656 37.928C34.904 33.224 28.04 21.56 24.728 8.648ZM40.376 8.504C37.208 12.776 31.64 18.392 27.56 21.704L30.104 23.72C34.28 20.504 39.752 15.224 43.688 10.856L40.376 8.504ZM65.912 8.504V11.048H75.752V8.504H65.912ZM65.096 2.504V5.096H74.024V14.6H65.048V17.24H77.192V2.504H65.096ZM79.832 8.504V11.048H89.96V8.504H79.832ZM79.16 2.504V5.096H88.328V14.6H79.112V17.24H91.496V2.504H79.16ZM69.368 27.56V30.104H90.68V27.56H69.368ZM69.368 33.8V36.344H90.68V33.8H69.368ZM69.512 40.328V43.112H93.08V40.328H69.512ZM70.472 16.568C68.888 20.552 65.576 25.304 62.072 28.28C62.696 28.856 63.704 30.008 64.232 30.68C68.12 27.368 71.672 22.232 73.832 17.576L70.472 16.568ZM70.76 21.032H70.232L67.448 23.96V44.6H70.76V23.864H91.88V21.032H70.76ZM80.504 16.856C80.024 18.488 78.968 20.984 78.152 22.664L80.84 23.48C81.8 21.992 83 19.784 84.056 17.672L80.504 16.856ZM78.2 23.192V41.384H81.416V23.192H78.2ZM52.376 3.704V6.968H59.816V32.36H52.376V35.576H63.08V3.704H52.376ZM52.568 17.768V20.984H61.496V17.768H52.568ZM50.696 3.704V39.56H53.912V3.704H50.696ZM103.448 3.944V44.312H107.144V7.592H131.096V44.12H134.888V3.944H103.448ZM105.896 20.6V24.152H132.68V20.6H105.896ZM105.848 37.592V41.192H132.776V37.592H105.848Z" fill="black"/>
</svg>
